<?xml version="1.0" standalone="no"?>
<!DOCTYPE svg PUBLIC "-//W3C//DTD SVG 1.1//EN" "http://www.w3.org/Graphics/SVG/1.1/DTD/svg11.dtd" >
<svg xmlns="http://www.w3.org/2000/svg" xmlns:xlink="http://www.w3.org/1999/xlink" version="1.1">
<metadata></metadata>
<defs>
<font id="inter_tightregular" horiz-adv-x="1288" >
<font-face units-per-em="2048" ascent="1638" descent="-410" />
<missing-glyph horiz-adv-x="480" />
<glyph horiz-adv-x="0" />
<glyph horiz-adv-x="682" />
<glyph unicode=" "  horiz-adv-x="480" />
<glyph unicode="&#x09;" horiz-adv-x="480" />
<glyph unicode="&#xa0;" horiz-adv-x="480" />
<glyph unicode="!" horiz-adv-x="512" d="M125 119q0 54 38.5 92.5t92.5 38.5t92.5 -38.5t38.5 -92.5t-38.5 -92.5t-92.5 -38.5t-92.5 38.5t-38.5 92.5zM159 1490h194l-12 -1010h-170z" />
<glyph unicode="&#x22;" horiz-adv-x="850" d="M162 1490h186l-21 -562h-144zM502 1490h186l-21 -562h-144z" />
<glyph unicode="#" horiz-adv-x="1196" d="M-14 414l24 144h1112l-24 -144h-1112zM74 930l24 146h1110l-22 -146h-1112zM142 0l244 1490h144l-244 -1490h-144zM664 0l246 1490h144l-244 -1490h-146z" />
<glyph unicode="$" horiz-adv-x="1210" d="M68 384h186q8 -84 57.5 -139t126.5 -82t166 -27q103 0 185.5 34t130.5 95t48 143q0 74 -42 120t-109.5 75t-146.5 51l-182 52q-175 50 -276.5 143.5t-101.5 244.5q0 125 67.5 218.5t183 145.5t257.5 52q144 0 256 -51.5t178 -140t70 -200.5h-176q-13 110 -105.5 171 t-228.5 61q-98 0 -172 -32t-115 -88t-41 -128q0 -79 49 -127.5t116.5 -75.5t122.5 -43l150 -42q58 -16 129.5 -43t138 -73t109.5 -117.5t43 -176.5q0 -120 -63 -217.5t-183 -155t-292 -57.5q-160 0 -277 51.5t-183.5 144t-75.5 214.5zM546 -186v1862h118v-1862h-118z" />
<glyph unicode="%" horiz-adv-x="1568" d="M124 1132v78q0 82 34 150t98.5 109t157.5 41q95 0 159.5 -41t97 -109t31.5 -150v-78q1 -81 -32.5 -149.5t-97.5 -109.5t-158 -41t-159 41t-98 109.5t-33 149.5zM180 0l1024 1490h166l-1024 -1490h-166zM272 1132q0 -68 32 -121.5t110 -52.5q77 -1 108.5 52.5t31.5 121.5 v78q0 68 -30.5 121.5t-109.5 52.5q-76 1 -109 -52.5t-33 -121.5v-78zM866 280v78q0 82 33.5 150t98.5 109t158 41q95 0 159 -41t96.5 -109t32.5 -150v-78q0 -82 -33 -150t-97 -109t-158 -41t-159 41t-98 109t-33 150zM1014 280q0 -68 32 -121.5t110 -54.5q77 1 108.5 54.5 t31.5 121.5v78q0 68 -30.5 121t-109.5 53q-76 0 -109 -53t-33 -121v-78z" />
<glyph unicode="&#x26;" horiz-adv-x="1214" d="M56 396q0 93 41 164t111.5 132.5t159.5 127.5l216 160q61 45 99.5 90.5t38.5 121.5q0 57 -49.5 110.5t-130.5 53.5q-56 0 -99.5 -28.5t-68 -72.5t-24.5 -91q0 -52 29 -106t74 -109.5t93 -114.5l684 -834h-208l-564 680q-78 95 -142 172.5t-102 152t-38 161.5 q0 101 45 177t126 118.5t189 42.5q113 0 194 -43t124.5 -114t43.5 -155q0 -106 -53.5 -184t-144.5 -146l-298 -222q-100 -74 -135 -144t-35 -100q0 -70 36.5 -130.5t102.5 -98t155 -37.5q84 0 164 36.5t144.5 104.5t103 164.5t38.5 216.5h166q0 -148 -34 -242t-77 -147 t-69 -79q-9 -11 -16.5 -22t-15.5 -22q-73 -81 -183 -120.5t-217 -39.5q-146 0 -252.5 53.5t-164 147.5t-57.5 215z" />
<glyph unicode="'" horiz-adv-x="510" d="M162 1490h186l-21 -562h-144z" />
<glyph unicode="(" horiz-adv-x="642" d="M170 607q0 161 33 339t91.5 344.5t133.5 290.5h166q-78 -158 -134.5 -328t-87 -335.5t-30.5 -310.5q0 -130 26.5 -266t82 -288t143.5 -332h-166q-127 216 -192.5 441t-65.5 445z" />
<glyph unicode=")" horiz-adv-x="642" d="M48 -279q88 180 143.5 332t82 288t26.5 266q0 145 -30.5 310.5t-86.5 335.5t-135 328h166q76 -124 134 -290.5t91 -344.5t33 -339q0 -220 -65.5 -445t-192.5 -441h-166z" />
<glyph unicode="*" horiz-adv-x="928" d="M66 922l284 148l-284 148l70 124l270 -172l-12 320h140l-12 -320l270 172l70 -124l-284 -148l284 -148l-70 -122l-270 172l12 -320h-140l12 320l-270 -172z" />
<glyph unicode="+" horiz-adv-x="1254" d="M146 500v164h960v-164h-960zM546 102v960h162v-960h-162z" />
<glyph unicode="," horiz-adv-x="514" d="M80 -354l88 562h198l-154 -562h-132z" />
<glyph unicode="-" horiz-adv-x="844" d="M96 558v160h652v-160h-652z" />
<glyph unicode="." horiz-adv-x="486" d="M112 119q0 54 38.5 92.5t92.5 38.5t92.5 -38.5t38.5 -92.5t-38.5 -92.5t-92.5 -38.5t-92.5 38.5t-38.5 92.5z" />
<glyph unicode="/" horiz-adv-x="634" d="M-2 -224l480 1784h158l-480 -1784h-158z" />
<glyph unicode="0" horiz-adv-x="1184" d="M74 744q0 242 61.5 413.5t177.5 262t279 90.5t279 -90.5t177.5 -262t61.5 -413.5q0 -243 -61 -413.5t-176.5 -260.5t-280.5 -90q-164 0 -280 90t-177 260.5t-61 413.5zM246 744q0 -191 40.5 -327t118 -207.5t187.5 -71.5q111 0 188 71.5t117.5 207.5t40.5 327 q0 192 -40.5 328t-117.5 208t-188 72q-166 0 -256 -160t-90 -448z" />
<glyph unicode="1" horiz-adv-x="728" d="M48 1058v184l372 248h176v-1490h-176v1300h-10z" />
<glyph unicode="2" horiz-adv-x="1144" d="M106 0v130l492 540q86 94 141.5 164t83 132t27.5 130q0 79 -37.5 136.5t-101.5 88.5t-145 31q-86 0 -149.5 -35t-98 -98.5t-34.5 -148.5h-172q0 131 60.5 230t165 154.5t234.5 55.5q131 0 232 -55.5t158.5 -149t57.5 -209.5q0 -82 -29.5 -159.5t-102 -173.5t-200.5 -233 l-334 -358v-12h692v-160h-940z" />
<glyph unicode="3" horiz-adv-x="1208" d="M104 372h182q6 -72 49.5 -124t114 -80t156.5 -28q96 0 170.5 33.5t117 93t42.5 137.5q0 83 -41 146t-119.5 98.5t-191.5 35.5h-120v160h120q88 0 155 32t105 90t38 136q0 76 -33 132t-93.5 87t-143.5 31q-77 0 -145 -28t-111 -80t-46 -126h-174q4 117 70 205t173.5 137.5 t236.5 49.5q138 0 237 -55.5t152 -146.5t53 -196q0 -127 -65.5 -215t-178.5 -123v-12q140 -23 219 -119.5t79 -238.5q0 -121 -65.5 -217t-179 -151.5t-257.5 -55.5q-145 0 -257 49t-178 137.5t-71 205.5z" />
<glyph unicode="4" horiz-adv-x="1218" d="M72 306v148l654 1036h108v-230h-74l-494 -782v-12h882v-160h-1076zM772 0v350v70v1070h172v-1490h-172z" />
<glyph unicode="5" horiz-adv-x="1138" d="M110 372h174q10 -100 91.5 -166t196.5 -66q92 0 163 43t112 118t41 171q0 97 -42.5 174t-116.5 121.5t-169 44.5q-69 0 -140.5 -21.5t-117.5 -54.5l-170 20l90 734h774v-160h-622l-52 -440h8q46 37 115 60.5t145 23.5q137 0 244 -65t168.5 -177.5t61.5 -257.5 q0 -142 -64 -254t-175 -176t-253 -64q-128 0 -230.5 50.5t-164.5 139.5t-67 202z" />
<glyph unicode="6" horiz-adv-x="1164" d="M74 686q0 198 37.5 351t108 258.5t170.5 160t226 54.5q125 0 222.5 -50t159.5 -138.5t80 -203.5h-176q-25 100 -96.5 166t-189.5 66q-173 0 -272.5 -150.5t-99.5 -423.5h12q41 62 97 106.5t124 68t145 23.5q128 0 234 -63.5t170 -175t64 -255.5q0 -138 -61.5 -251.5 t-173.5 -181t-263 -67.5q-91 0 -183 33.5t-167.5 113t-121.5 216.5t-46 343zM270 478q0 -89 42 -166.5t114.5 -124.5t165.5 -47q92 0 165 45.5t116 123t43 171.5q0 93 -41.5 168.5t-113 120.5t-163.5 45t-166.5 -47t-118 -123.5t-43.5 -165.5z" />
<glyph unicode="7" horiz-adv-x="1056" d="M50 1330v160h956v-170l-664 -1320h-190l666 1318v12h-768z" />
<glyph unicode="8" horiz-adv-x="1160" d="M74 396q0 94 37.5 174.5t103 134.5t147.5 69v8q-107 28 -170.5 121t-63.5 211q0 114 58 203.5t160.5 141t233.5 51.5q129 0 231 -51.5t160.5 -141t58.5 -203.5q0 -118 -64 -211t-168 -121v-8q80 -15 145.5 -69t104 -134.5t38.5 -174.5q0 -121 -64.5 -215t-178.5 -147.5 t-263 -53.5q-150 0 -264 53.5t-178 147.5t-64 215zM250 404q0 -80 40 -139.5t114 -92t176 -32.5q101 0 174.5 32.5t113.5 92t40 139.5q0 84 -43 149t-117 102t-168 37q-96 0 -170.5 -37t-117 -102t-42.5 -149zM302 1102q0 -77 35.5 -134.5t98 -89.5t144.5 -32q80 0 142 32 t98 89.5t36 134.5q0 76 -35 132t-97 87t-144 31q-84 0 -146.5 -31t-97 -87t-34.5 -132z" />
<glyph unicode="9" horiz-adv-x="1164" d="M74 1012q1 137 62.5 250.5t173 181.5t262.5 66q92 -1 183.5 -35t167.5 -113t121.5 -215t45.5 -341q0 -199 -37 -352.5t-107.5 -259t-170.5 -160t-225 -54.5t-223.5 50t-160.5 139t-80 207h178q24 -103 96 -169.5t190 -66.5q172 0 271.5 150.5t100.5 425.5h-12 q-41 -61 -97 -105.5t-124 -68.5t-145 -24q-128 0 -235 63.5t-170.5 175t-64.5 255.5zM250 1012q0 -93 40.5 -169t112.5 -120.5t163 -44.5q92 0 166.5 47.5t119 124.5t44.5 166q0 87 -42 163.5t-115 123.5t-167 47q-91 0 -164.5 -45.5t-115.5 -122t-42 -170.5z" />
<glyph unicode=":" horiz-adv-x="486" d="M112 119q0 54 38.5 92.5t92.5 38.5t92.5 -38.5t38.5 -92.5t-38.5 -92.5t-92.5 -38.5t-92.5 38.5t-38.5 92.5zM112 928q0 54 38.5 92.5t92.5 38.5t92.5 -38.5t38.5 -92.5t-38.5 -92.5t-92.5 -38.5t-92.5 38.5t-38.5 92.5z" />
<glyph unicode=";" horiz-adv-x="514" d="M80 -354l88 562h198l-154 -562h-132zM140 928q0 54 38.5 92.5t92.5 38.5t92.5 -38.5t38.5 -92.5t-38.5 -92.5t-92.5 -38.5t-92.5 38.5t-38.5 92.5z" />
<glyph unicode="&#x3c;" horiz-adv-x="1254" d="M158 524v116l938 478v-188l-720 -346l6 12v-28l-6 10l720 -346v-186z" />
<glyph unicode="=" horiz-adv-x="1254" d="M178 288v158h896v-158h-896zM178 718v158h896v-158h-896z" />
<glyph unicode="&#x3e;" horiz-adv-x="1254" d="M158 46v186l720 346l-6 -10v28l6 -12l-720 346v188l938 -478v-116z" />
<glyph unicode="?" horiz-adv-x="942" d="M34 1118q5 123 63.5 211t155 134.5t213.5 46.5q129 0 223.5 -51t146.5 -139.5t52 -201.5q0 -121 -53.5 -207t-148.5 -145q-64 -39 -103.5 -75.5t-57 -89.5t-17.5 -143v-10h-174v10q0 139 27.5 213.5t78.5 118t122 86.5q65 38 108.5 100.5t43.5 149.5q0 71 -33 123 t-89.5 80.5t-125.5 28.5q-59 0 -114 -24.5t-92.5 -77t-43.5 -138.5h-182zM292 119q0 54 38.5 92.5t92.5 38.5t92.5 -38.5t38.5 -92.5t-38.5 -92.5t-92.5 -38.5t-92.5 38.5t-38.5 92.5z" />
<glyph unicode="@" horiz-adv-x="1822" d="M50 526q0 213 61 381t177 286t282 179.5t376 61.5q204 0 358.5 -66.5t258 -179.5t155.5 -254.5t52 -291.5q0 -105 -10 -213t-43 -198.5t-101 -145.5t-184 -55q-50 0 -111.5 16t-108.5 53t-56 99h-8q-17 -41 -51 -77.5t-88.5 -59.5t-131.5 -23q-132 0 -221.5 66 t-134.5 178.5t-45 253.5q0 133 53.5 238.5t146.5 166.5t212 61q98 0 161.5 -35.5t88.5 -70.5h10v82h154v-658q0 -61 34 -107.5t100 -46.5q74 0 113.5 51t54 157t14.5 272q0 98 -26.5 192.5t-79.5 177.5t-134.5 146.5t-191 99.5t-248.5 36q-171 0 -306 -53t-229 -153.5 t-143.5 -244.5t-49.5 -327q0 -185 49.5 -329t146 -243t239 -150.5t329.5 -51.5q80 0 157.5 15.5t137 34t85.5 26.5l40 -134q-44 -18 -116 -36.5t-154 -31t-156 -12.5q-223 0 -394 60.5t-287.5 178t-176.5 288.5t-60 391zM626 544q0 -93 25 -174.5t81 -132.5t150 -51 q98 0 158.5 39.5t88 119t27.5 199.5q0 122 -30.5 190.5t-90 96t-147.5 27.5q-82 0 -141 -43.5t-90 -114.5t-31 -156z" />
<glyph unicode="A" d="M4 0l548 1490h186l546 -1490h-188l-446 1254h-12l-444 -1254h-190zM264 422v160h762v-160h-762z" />
<glyph unicode="B" horiz-adv-x="1236" d="M132 0v1490h522q155 0 256 -53.5t150.5 -143.5t49.5 -199q0 -96 -34 -158.5t-89 -99t-119 -54.5v-14q69 -4 138 -48t115.5 -125t46.5 -199q0 -112 -51 -201.5t-160.5 -142t-286.5 -52.5h-538zM312 160h358q177 0 251.5 69t74.5 167q0 76 -38.5 140t-109.5 103t-168 39 h-368v-518zM312 834h336q81 0 147 32.5t104.5 91t38.5 136.5q0 98 -68 167t-216 69h-342v-496z" />
<glyph unicode="C" horiz-adv-x="1394" d="M74 744q0 236 85 408t234 265t339 93q112 0 211.5 -33t179.5 -95.5t133.5 -153t73.5 -204.5h-180q-16 78 -55.5 137t-96 99.5t-124.5 61t-142 20.5q-135 0 -245 -68.5t-174.5 -202t-64.5 -327.5q0 -193 64.5 -326t174.5 -201.5t245 -68.5q74 0 142 20.5t124.5 61t96 99.5 t55.5 137h180q-20 -115 -73.5 -205t-133.5 -152.5t-179.5 -95.5t-211.5 -33q-190 0 -339 93t-234 264.5t-85 406.5z" />
<glyph unicode="D" horiz-adv-x="1376" d="M132 0v1490h180v-1490h-180zM226 1330v160h386q217 0 371.5 -89t236.5 -255.5t82 -397.5q0 -233 -83 -400.5t-241.5 -257.5t-385.5 -90h-358v160h346q185 0 306.5 71t181.5 203t60 314q0 180 -59 310.5t-176.5 201t-292.5 70.5h-374z" />
<glyph unicode="E" horiz-adv-x="1128" d="M132 0v1490h900v-160h-720v-498h672v-160h-672v-512h730v-160h-910z" />
<glyph unicode="F" horiz-adv-x="1106" d="M132 0v1490h894v-160h-714v-520h646v-160h-646v-650h-180z" />
<glyph unicode="G" horiz-adv-x="1426" d="M74 744q0 236 83.5 408t230.5 265t338 93q118 0 220 -35t182 -100t133.5 -154t74.5 -197h-186q-24 74 -62.5 132.5t-92.5 100t-121 63.5t-148 22q-132 0 -240.5 -68.5t-173 -202t-64.5 -327.5q0 -193 65 -326t176 -201.5t249 -68.5q128 0 225 55t152 155.5t55 237.5 l56 -12h-448v160h568v-160q0 -184 -78 -319.5t-215.5 -210t-314.5 -74.5q-198 0 -347.5 93t-233 264.5t-83.5 406.5z" />
<glyph unicode="H" horiz-adv-x="1418" d="M132 0v1490h180v-664h794v664h180v-1490h-180v666h-794v-666h-180z" />
<glyph unicode="I" horiz-adv-x="444" d="M132 0v1490h180v-1490h-180z" />
<glyph unicode="J" horiz-adv-x="1014" d="M36 350v34h178v-34q0 -63 31.5 -110.5t86.5 -73.5t126 -26q78 0 132.5 32.5t83 96t28.5 155.5v1066h180v-1066q0 -142 -52 -241.5t-147 -151t-225 -51.5q-122 0 -217.5 44.5t-150 127.5t-54.5 198z" />
<glyph unicode="K" horiz-adv-x="1240" d="M132 0v1490h180v-740h18l670 740h234l-624 -672l624 -818h-218l-518 692l-186 -210v-482h-180z" />
<glyph unicode="L" horiz-adv-x="1056" d="M132 0v1490h180v-1330h694v-160h-874z" />
<glyph unicode="M" horiz-adv-x="1733" d="M132 0v1490h216l506 -1236h18l506 1236h223v-1490h-177v1132h-14l-469 -1132h-162l-463 1132h-14v-1132h-170z" />
<glyph unicode="N" horiz-adv-x="1448" d="M132 0v1490h174l816 -1172h14v1172h180v-1490h-178l-810 1170h-16v-1170h-180z" />
<glyph unicode="O" horiz-adv-x="1464" d="M74 744q0 236 85.5 408t234.5 265t339 93q191 0 339 -93t233 -265t85 -408q0 -235 -85 -406.5t-233 -264.5t-339 -93q-190 0 -339 93t-234.5 264.5t-85.5 406.5zM248 744q0 -193 65 -326t175 -201.5t245 -68.5t244.5 68.5t174 201.5t64.5 326q0 194 -64.5 327.5t-174 202 t-244.5 68.5t-245 -68.5t-175 -202t-65 -327.5z" />
<glyph unicode="P" horiz-adv-x="1204" d="M132 0v1490h504q175 0 286.5 -63t165.5 -170t54 -239q0 -131 -53.5 -239t-165 -171.5t-285.5 -63.5h-360v160h354q120 0 193 41t106 112.5t33 160.5q0 90 -33 160.5t-106.5 111t-194.5 40.5h-318v-1330h-180z" />
<glyph unicode="Q" horiz-adv-x="1464" d="M74 744q0 236 85.5 408t234.5 265t339 93q191 0 339 -93t233 -265t85 -408q0 -235 -85 -406.5t-233 -264.5t-339 -93q-190 0 -339 93t-234.5 264.5t-85.5 406.5zM248 744q0 -193 65 -326t175 -201.5t245 -68.5t244.5 68.5t174 201.5t64.5 326q0 194 -64.5 327.5t-174 202 t-244.5 68.5t-245 -68.5t-175 -202t-65 -327.5zM674 466h198l166 -218l42 -58l248 -330h-198l-162 218l-42 56z" />
<glyph unicode="R" horiz-adv-x="1214" d="M132 0v1490h504q175 0 286.5 -59.5t165.5 -163t54 -235.5q0 -131 -53.5 -233t-165 -159.5t-285.5 -57.5h-406v162h400q120 0 193 35t106 99.5t33 153.5q0 90 -33.5 157t-106.5 104t-194 37h-318v-1330h-180zM630 670h204l366 -670h-210z" />
<glyph unicode="S" horiz-adv-x="1210" d="M68 384h186q8 -84 57.5 -139t126.5 -82t166 -27q103 0 185.5 34t130.5 95t48 143q0 74 -42 120t-109.5 75t-146.5 51l-182 52q-175 50 -276.5 143.5t-101.5 244.5q0 125 67.5 218.5t183 145.5t257.5 52q144 0 256 -51.5t178 -140t70 -200.5h-176q-13 110 -105.5 171 t-228.5 61q-98 0 -172 -32t-115 -88t-41 -128q0 -79 49 -127.5t116.5 -75.5t122.5 -43l150 -42q58 -16 129.5 -43t138 -73t109.5 -117.5t43 -176.5q0 -120 -63 -217.5t-183 -155t-292 -57.5q-160 0 -277 51.5t-183.5 144t-75.5 214.5z" />
<glyph unicode="T" horiz-adv-x="1218" d="M50 1330v160h1118v-160h-468v-1330h-180v1330h-470z" />
<glyph unicode="U" horiz-adv-x="1422" d="M132 504v986h180v-972q0 -109 48 -194t138 -133.5t214 -48.5t213 48.5t137 133.5t48 194v972h180v-986q0 -153 -71.5 -272.5t-201.5 -188.5t-305 -69t-305.5 69t-202.5 188.5t-72 272.5z" />
<glyph unicode="V" d="M4 1490h190l442 -1254h18l442 1254h188l-546 -1490h-186z" />
<glyph unicode="W" horiz-adv-x="1862" d="M3 1490h182l312 -1214h14l318 1214h204l316 -1214h16l310 1214h184l-408 -1490h-186l-328 1186h-12l-328 -1186h-188z" />
<glyph unicode="X" horiz-adv-x="1218" d="M8 0l480 744l-480 746h212l384 -620h12l384 620h212l-468 -746l468 -744h-212l-384 608h-12l-384 -608h-212z" />
<glyph unicode="Y" horiz-adv-x="1266" d="M4 1490h206l414 -696h18l412 696h208l-540 -876v-614h-180v614z" />
<glyph unicode="Z" horiz-adv-x="1184" d="M74 1330v160h1028v-132l-804 -1198h812v-160h-1028v130l804 1200h-812z" />
<glyph unicode="[" horiz-adv-x="642" d="M178 -279v1860h390v-146h-228v-1568h228v-146h-390z" />
<glyph unicode="\" horiz-adv-x="634" d="M-2 1560h158l480 -1784h-158z" />
<glyph unicode="]" horiz-adv-x="642" d="M74 -133h228v1568h-228v146h390v-1860h-390v146z" />
<glyph unicode="^" horiz-adv-x="864" d="M34 814l300 628h196l300 -628h-172l-234 504h16l-232 -504h-174zM406 1288v74h52v-74h-52z" />
<glyph unicode="_" horiz-adv-x="830" d="M-50 0h930v-160h-930v160z" />
<glyph unicode="`" horiz-adv-x="794" d="M240 1532h194l140 -274h-142z" />
<glyph unicode="a" horiz-adv-x="1060" d="M56 318q0 96 38 155.5t101.5 94t140 51.5t154.5 27q102 13 165.5 20t93 24t29.5 58v6q0 107 -58.5 166.5t-177.5 59.5q-122 0 -192 -53.5t-98 -114.5l-164 58q44 102 117.5 159t160 80t170.5 23q54 0 124 -12.5t136.5 -52t110 -119t43.5 -212.5v-736h-172v152h-8 q-17 -36 -58 -77.5t-108.5 -71t-165.5 -29.5q-106 0 -193 40.5t-138 117.5t-51 186zM228 308q0 -89 66.5 -134.5t169.5 -45.5q102 0 172 40t106 103.5t36 132.5v158q-11 -13 -47.5 -23.5t-84 -18.5t-92.5 -13.5t-72 -8.5q-67 -9 -125 -28.5t-93.5 -57.5t-35.5 -104z" />
<glyph unicode="b" horiz-adv-x="1150" d="M110 0v1490h170v-550h14q19 29 53 74.5t98 81.5t173 36q141 0 248 -70.5t167.5 -200t60.5 -305.5q0 -177 -60 -307.5t-167 -201.5t-247 -71q-107 0 -172 36.5t-100 83t-54 76.5h-20v-172h-164zM278 558q0 -126 37 -222.5t108.5 -151t174.5 -54.5q107 0 179 57.5 t108.5 154.5t36.5 216q0 118 -36 213t-107.5 151t-180.5 56q-105 0 -176 -52.5t-107.5 -147t-36.5 -220.5z" />
<glyph unicode="c" horiz-adv-x="1054" d="M56 552q0 171 63 301.5t176.5 204.5t264.5 74q118 0 212.5 -43.5t155 -122.5t74.5 -184h-172q-13 51 -47 96t-89.5 72.5t-131.5 27.5q-100 0 -175 -52t-117 -146.5t-42 -221.5q0 -129 41 -225.5t116.5 -149.5t176.5 -53t173 52.5t95 143.5h172q-14 -99 -71.5 -178 t-151 -125.5t-217.5 -46.5q-156 0 -269.5 74.5t-175 204.5t-61.5 297z" />
<glyph unicode="d" horiz-adv-x="1150" d="M56 556q0 176 60.5 305.5t167.5 200t248 70.5q110 0 173.5 -36t97.5 -81.5t53 -74.5h14v550h170v-1490h-164v172h-20q-19 -30 -54 -76.5t-99.5 -83t-172.5 -36.5q-140 0 -247 71t-167 201.5t-60 307.5zM228 558q0 -119 36.5 -216t108.5 -154.5t179 -57.5q104 0 175 54.5 t108 151t37 222.5t-36 220.5t-107.5 147t-176.5 52.5q-108 0 -180 -56t-108 -151t-36 -213z" />
<glyph unicode="e" horiz-adv-x="1092" d="M56 550q0 172 62 303t174.5 205t263.5 74q87 0 173 -29t156.5 -94t112.5 -172t42 -263v-74h-862v148h769l-79 -56q0 112 -35 199t-104.5 137t-172.5 50t-176.5 -50.5t-112.5 -131.5t-39 -174v-98q0 -127 44 -215t123 -133.5t183 -45.5q67 0 122 19.5t95 59t61 97.5 l166 -48q-26 -84 -87.5 -147.5t-152.5 -99t-204 -35.5q-161 0 -278.5 72t-180.5 201.5t-63 300.5z" />
<glyph unicode="f" horiz-adv-x="642" d="M4 972v146h602v-146h-602zM184 0v1272q0 96 45.5 160t117.5 96t151 32q64 0 104.5 -10.5t59.5 -19.5l-50 -148q-13 5 -35.5 11.5t-60.5 6.5q-85 0 -123.5 -43.5t-38.5 -126.5v-1230h-170z" />
<glyph unicode="g" horiz-adv-x="1152" d="M56 564q0 172 60.5 299.5t168.5 198t249 70.5q109 0 173.5 -36t99 -81.5t53.5 -74.5h18v178h164v-1150q0 -144 -64.5 -234.5t-174 -133t-243.5 -42.5q-187 0 -295.5 68t-160.5 156l136 96q23 -31 59 -70.5t98 -68.5t163 -29q135 0 223.5 65t88.5 205v226h-16 q-18 -30 -52.5 -74.5t-99 -79t-174.5 -34.5q-135 0 -242 64t-169.5 186t-62.5 296zM228 568q0 -116 36.5 -205.5t109.5 -140t180 -50.5q155 0 237.5 105t82.5 291q0 121 -36 213t-107.5 144.5t-176.5 52.5q-109 0 -181.5 -55.5t-108.5 -148.5t-36 -206z" />
<glyph unicode="h" horiz-adv-x="1116" d="M110 0v1490h170v-548h16q39 87 117.5 138.5t210.5 51.5q114 0 200 -45.5t134 -139t48 -237.5v-710h-172v698q0 134 -69 207t-191 73q-85 0 -151 -36t-104.5 -104t-38.5 -166v-672h-170z" />
<glyph unicode="i" horiz-adv-x="390" d="M74 1420q0 48 36 82t86 34t86 -34t36 -82t-36 -82t-86 -34t-86 34t-36 82zM110 0v1118h170v-1118h-170z" />
<glyph unicode="j" horiz-adv-x="390" d="M-74 -258h32q79 0 115 45.5t37 130.5v1200h170v-1200v-6q0 -99 -34 -172q-36 -76 -107 -117t-179 -41h-34v160zM72 1420q0 48 36 82t86 34t86 -34t36 -82t-36 -82t-86 -34t-86 34t-36 82z" />
<glyph unicode="k" horiz-adv-x="1018" d="M110 0v1490h170v-1490h-170zM266 620h36l488 498h212l-520 -528h-16l-196 -182zM382 552l122 120l534 -672h-220z" />
<glyph unicode="l" horiz-adv-x="390" d="M110 0v1490h170v-1490h-170z" />
<glyph unicode="m" horiz-adv-x="1686" d="M110 0v1118h164v-176h16q35 90 113 140t187 50q110 0 183.5 -50t114.5 -140h12q44 87 129.5 138.5t204.5 51.5q150 0 246 -93.5t96 -290.5v-748h-172v748q0 124 -68 177t-160 53q-117 0 -181.5 -71.5t-64.5 -178.5v-728h-176v766q0 95 -61 153.5t-159 58.5 q-67 0 -125 -36t-93.5 -99t-35.5 -145v-698h-170z" />
<glyph unicode="n" horiz-adv-x="1104" d="M110 0v1118h164v-176h16q39 86 119 138t207 52q113 0 198 -46t132.5 -139.5t47.5 -236.5v-710h-170v698q0 131 -69 205.5t-188 74.5q-82 0 -147 -36t-102.5 -104t-37.5 -166v-672h-170z" />
<glyph unicode="o" horiz-adv-x="1126" d="M56 552q0 175 63.5 305.5t177.5 202.5t265 72q152 0 266 -72t178 -202.5t64 -305.5q0 -172 -64 -302t-178 -202t-266 -72q-151 0 -265 72t-177.5 202t-63.5 302zM228 552q0 -111 36 -207.5t110 -155.5t188 -59q116 0 190 59t110 155.5t36 207.5q0 113 -36 210t-110 156.5 t-190 59.5q-114 0 -188 -59.5t-110 -156.5t-36 -210z" />
<glyph unicode="p" horiz-adv-x="1150" d="M110 -418v1536h164v-178h20q19 29 53 74.5t98 81.5t173 36q141 0 248 -70.5t167.5 -200t60.5 -305.5q0 -177 -60 -307.5t-167 -201.5t-247 -71q-107 0 -172 36.5t-100 83t-54 76.5h-14v-590h-170zM278 558q0 -126 37 -222.5t108.5 -151t174.5 -54.5q107 0 179 57.5 t108.5 154.5t36.5 216q0 118 -36 213t-107.5 151t-180.5 56q-105 0 -176 -52.5t-107.5 -147t-36.5 -220.5z" />
<glyph unicode="q" horiz-adv-x="1150" d="M56 556q0 176 60.5 305.5t167.5 200t248 70.5q110 0 173.5 -36t97.5 -81.5t53 -74.5h20v178h164v-1536h-170v590h-14q-19 -30 -54 -76.5t-99.5 -83t-172.5 -36.5q-140 0 -247 71t-167 201.5t-60 307.5zM228 558q0 -119 36.5 -216t108.5 -154.5t179 -57.5q104 0 175 54.5 t108 151t37 222.5t-36 220.5t-107.5 147t-176.5 52.5q-108 0 -180 -56t-108 -151t-36 -213z" />
<glyph unicode="r" horiz-adv-x="666" d="M110 0v1118h164v-170h12q31 83 111.5 134.5t180.5 51.5q19 0 47 -0.5t43 -1.5v-174q-9 2 -40 6t-66 4q-81 0 -145 -34t-100.5 -93t-36.5 -135v-706h-170z" />
<glyph unicode="s" horiz-adv-x="974" d="M60 268l162 40q23 -90 88.5 -135t171.5 -45q119 0 190.5 51.5t71.5 122.5q0 118 -166 158l-186 44q-154 37 -226 113t-72 191q0 95 53.5 168t146.5 114.5t210 41.5q167 0 261.5 -73.5t134.5 -192.5l-154 -42q-22 57 -75.5 108.5t-166.5 51.5q-102 0 -170 -47.5 t-68 -118.5q0 -64 46.5 -102t145.5 -62l166 -40q149 -36 222.5 -111t73.5 -191q0 -96 -55 -172t-153 -120t-228 -44q-171 0 -282.5 75t-141.5 217z" />
<glyph unicode="t" horiz-adv-x="648" d="M16 972v146h578v-146h-578zM184 274v1110h170v-1064q0 -87 36 -127.5t114 -40.5q17 0 35.5 2t40.5 6l36 -154q-24 -9 -58.5 -14.5t-69.5 -5.5q-135 0 -219.5 80t-84.5 208z" />
<glyph unicode="u" horiz-adv-x="1094" d="M110 408v710h170v-700q0 -121 70 -194q69 -72 173 -72h3q64 0 130.5 32.5t112 100t45.5 171.5v662h170v-1118h-170v190h-12q-40 -85 -122 -145q-81 -59 -206 -59h-4q-105 0 -186 45.5t-127.5 139.5t-46.5 237z" />
<glyph unicode="v" horiz-adv-x="1044" d="M22 1118h186l308 -892h12l308 892h186l-412 -1118h-176z" />
<glyph unicode="w" horiz-adv-x="1568" d="M22 1118h180l242 -856h12l238 856h184l234 -854h12l242 854h180l-340 -1118h-168l-246 858h-16l-246 -858h-168z" />
<glyph unicode="x" horiz-adv-x="1010" d="M40 0l354 558l-354 560h198l266 -458l268 458h198l-360 -560l360 -558h-198l-268 434l-266 -434h-198z" />
<glyph unicode="y" horiz-adv-x="1044" d="M22 1118h186l308 -892h12l308 892h186l-474 -1280q-32 -87 -79 -144t-109 -84.5t-140 -27.5h-11q-37 0 -67 6q-34 7 -48 14l44 150l17 -4q35 -8 66 -8q44 0 79 16q58 29 102 150l32 88z" />
<glyph unicode="z" horiz-adv-x="1012" d="M78 0v130l634 816v12h-614v160h834v-138l-616 -808v-12h636v-160h-874z" />
<glyph unicode="{" horiz-adv-x="766" d="M96 564v174h172v-174h-172zM96 565v90q118 0 191.5 -18.5t113 -52.5t54.5 -80.5t15 -102.5v-290q0 -128 47.5 -188t174.5 -60v-142q-107 0 -179.5 23.5t-116.5 71t-63 121.5t-19 174v232q0 119 -48 170t-170 52zM96 647v90q122 0 170 50.5t48 169.5v234q0 100 19 173.5 t63 121.5t116.5 71.5t179.5 23.5v-144q-127 1 -174.5 -58.5t-47.5 -187.5v-292q0 -57 -15 -103t-54.5 -79.5t-113 -51.5t-191.5 -18z" />
<glyph unicode="|" horiz-adv-x="574" d="M214 -480v2450h146v-2450h-146z" />
<glyph unicode="}" horiz-adv-x="766" d="M74 -137q127 0 174.5 60t47.5 188v290q0 56 15 102.5t54.5 80.5t113 52.5t191.5 18.5v-90q-121 -1 -169.5 -52t-48.5 -170v-232q0 -100 -19 -174t-63 -121.5t-116.5 -71t-179.5 -23.5v142zM74 1437v144q107 0 179.5 -23.5t116.5 -71.5t63 -121.5t19 -173.5v-234 q0 -119 48.5 -169.5t169.5 -50.5v-90q-118 0 -191.5 18t-113 51.5t-54.5 79.5t-15 103v292q0 128 -47.5 187.5t-174.5 58.5zM498 564v174l172 -1v-172z" />
<glyph unicode="~" horiz-adv-x="1254" d="M120 442q-2 121 39.5 194.5t108 107t140.5 32.5q75 1 136.5 -31.5t141.5 -102.5q53 -46 85.5 -64.5t70.5 -19.5q62 1 99 46t35 132h158q2 -120 -39.5 -194t-108 -107t-140.5 -33q-75 -1 -136.5 31.5t-141.5 102.5q-53 46 -85.5 65t-70.5 19q-59 0 -97 -41.5t-37 -136.5 h-158z" />
<glyph unicode="&#xa1;" horiz-adv-x="512" d="M125 992q-1 55 37.5 93.5t92.5 38.5t92.5 -38.5t39.5 -93.5q-1 -53 -39.5 -91.5t-92.5 -38.5t-92.5 38.5t-37.5 91.5zM157 -378l14 1072h170l14 -1072h-198z" />
<glyph unicode="&#xa2;" horiz-adv-x="1054" d="M56 742q0 171 63 301.5t176.5 204.5t264.5 74q118 0 212.5 -43.5t155 -122.5t74.5 -184h-172q-13 51 -47 96t-89.5 72.5t-131.5 27.5q-100 0 -175 -52t-117 -146.5t-42 -221.5q0 -129 41 -225t116.5 -149.5t176.5 -53.5t173 52.5t95 143.5h172q-14 -99 -71.5 -178 t-151 -125.5t-217.5 -46.5q-156 0 -269.5 74.5t-175 204.5t-61.5 297zM494 0v1490h118v-1490h-118z" />
<glyph unicode="&#xa3;" horiz-adv-x="1196" d="M80 578v166h678v-166h-678zM86 0v160h986v-160h-986zM144 160q44 0 67 43.5t31 102t6 102.5l-20 630q-5 159 58.5 264t167 156.5t216.5 51.5q104 0 189.5 -37.5t143.5 -100.5t81 -142t2 -162l-168 46q10 76 -23 128.5t-91.5 80t-123.5 27.5q-70 0 -135 -33t-106 -102 t-41 -177l22 -630q5 -92 -16 -169.5t-80 -118.5z" />
<glyph unicode="&#xa4;" horiz-adv-x="1384" d="M72 108l200 204l120 -120l-204 -206zM72 1132l116 122l204 -206l-120 -122zM94 608q0 133 46.5 247t127.5 199t189 132.5t231 47.5t231 -47.5t190 -132.5t128.5 -199t46.5 -247t-46.5 -247.5t-128.5 -200t-190 -133t-231 -47.5t-231 47.5t-189 133t-127.5 200 t-46.5 247.5zM254 608q1 -128 59.5 -234.5t157 -170t217.5 -63.5q120 0 217.5 63.5t155.5 170t57 234.5q1 130 -57 236t-155.5 169t-217.5 63q-119 0 -217.5 -63t-157 -169t-59.5 -236zM994 192l116 120l204 -204l-120 -122zM994 1048l200 206l120 -122l-204 -206z" />
<glyph unicode="&#xa5;" horiz-adv-x="1026" d="M-18 1490h200l380 -830l-138 -58zM98 322v132h832v-132h-832zM98 610v132h832v-132h-832zM424 0v782h180v-782h-180zM464 660l382 830h200l-442 -888z" />
<glyph unicode="&#xa6;" horiz-adv-x="448" d="M144 -280v682h160v-682h-160zM144 812v678h160v-678h-160z" />
<glyph unicode="&#xa7;" horiz-adv-x="1032" d="M56 698q1 53 27 107.5t72 97t105 59.5v6q-46 47 -73.5 103.5t-28.5 126.5q1 91 46.5 161t126 110.5t183.5 40.5q112 0 193.5 -47.5t126 -131.5t44.5 -193h-166q-1 94 -48.5 156t-149.5 62q-65 0 -107.5 -24.5t-62.5 -60.5t-20 -73q0 -43 25 -81t61.5 -68t71.5 -51 l282 -166q28 -16 64 -43t70 -66t56 -91t22 -120q0 -54 -28 -107.5t-74 -95t-102 -59.5v-2q53 -46 77.5 -106t24.5 -130q0 -108 -52.5 -177.5t-136.5 -103t-181 -33.5q-114 0 -203.5 45t-140 129t-50.5 200h168q0 -106 64.5 -163t161.5 -57q81 0 142.5 39.5t61.5 120.5 q0 55 -24.5 92t-60.5 62.5t-71 45.5l-282 164q-29 16 -65.5 43t-70 66.5t-56 92.5t-22.5 120zM216 698q1 -70 43.5 -114.5t96.5 -77.5l270 -156q31 -18 76 -1t79.5 60.5t34.5 102.5q0 42 -19.5 77.5t-50.5 63.5t-66 49l-286 164q-32 20 -73.5 1.5t-72.5 -63.5t-32 -106z" />
<glyph unicode="&#xa8;" horiz-adv-x="1114" d="M232 1420q-1 50 34.5 83t81.5 33q50 0 83 -33t33 -83q0 -46 -33 -81.5t-83 -34.5q-46 -1 -81.5 34.5t-34.5 81.5zM650 1420q0 50 35 83t81 33q50 0 83.5 -33t32.5 -83q1 -46 -32.5 -81.5t-83.5 -34.5q-46 -1 -81 34.5t-35 81.5z" />
<glyph unicode="&#xa9;" horiz-adv-x="1778" d="M120 744q1 159 61 298.5t165.5 245t244.5 165t297 59.5q160 0 299 -59.5t244.5 -165t165 -245t59.5 -298.5q1 -159 -58.5 -298t-165 -244.5t-245 -165.5t-299.5 -60q-158 0 -297.5 60t-245.5 165.5t-165.5 244.5t-59.5 298zM290 744q-1 -123 45.5 -231.5t129 -191 t191 -129t232.5 -46.5q125 0 234 46.5t191.5 128.5t128.5 190.5t46 232.5q0 125 -47 233.5t-129 191t-190.5 129t-233.5 46.5q-123 0 -231.5 -46.5t-190.5 -129t-129 -191.5t-47 -233zM464 744q0 120 58 218t156.5 156.5t217.5 57.5q104 1 191.5 -43.5t145 -121t71.5 -173.5 h-176q-15 74 -81.5 122t-150.5 48q-72 0 -132 -35.5t-95.5 -95.5t-36.5 -133q1 -72 36.5 -132t95.5 -95t132 -35q84 -1 142.5 47t73.5 123h176q-13 -97 -67 -173.5t-137.5 -121t-187.5 -45.5q-119 1 -217.5 59t-156.5 156t-58 217z" />
<glyph unicode="&#xaa;" horiz-adv-x="824" d="M88 920q1 111 86.5 171.5t257.5 60.5h146v-116h-146q-87 0 -126.5 -33.5t-39.5 -76.5q0 -42 27.5 -65t88.5 -23q41 0 83 18t70 44.5t27 51.5l18 -118q-22 -47 -80 -94.5t-162 -47.5q-119 0 -184 62.5t-66 165.5zM106 1246q0 100 85 166t227 66q131 0 210.5 -69.5 t79.5 -206.5v-314q0 -49 5.5 -93.5t20.5 -88.5h-176q-11 35 -17.5 75.5t-6.5 80.5v340q0 63 -28.5 95t-87.5 33q-66 -1 -103 -26t-37 -74z" />
<glyph unicode="&#xab;" horiz-adv-x="1372" d="M88 596v14h166l280 -450h-152zM88 602v14l294 438h152l-280 -452h-166zM822 596v14h166l280 -450h-152zM822 602v14l294 438h152l-280 -452h-166z" />
<glyph unicode="&#xac;" horiz-adv-x="1010" d="M88 634v172h836v-172h-836zM722 376v352h202v-352h-202z" />
<glyph unicode="&#xad;" horiz-adv-x="844" d="M96 558v160h652v-160h-652z" />
<glyph unicode="&#xae;" horiz-adv-x="1278" d="M56 928q0 120 45.5 225.5t125.5 185.5t185.5 125.5t225.5 45.5q121 0 226.5 -45.5t185.5 -125.5t125 -185.5t45 -225.5t-45 -225.5t-125 -185.5t-185.5 -125.5t-226.5 -45.5q-120 0 -225.5 45.5t-185.5 125.5t-125.5 185.5t-45.5 225.5zM196 928q0 -122 59.5 -222.5 t160 -160t222.5 -59.5q123 0 223.5 59.5t160 160t58.5 222.5q1 122 -58.5 222.5t-160 160t-223.5 59.5q-122 0 -222.5 -59.5t-160 -160t-59.5 -222.5zM434 666v536h272q33 1 71.5 -17.5t66.5 -56.5t28 -96q0 -59 -29 -100.5t-69 -62.5t-76 -21h-196v88h160q24 -1 52 23 t28 73t-28.5 66.5t-49.5 17.5h-112v-450h-118zM632 920h128l134 -254h-130z" />
<glyph unicode="&#xaf;" horiz-adv-x="824" d="M72 1344v146h680v-146h-680z" />
<glyph unicode="&#xb0;" horiz-adv-x="834" d="M82 1166q1 93 46 169t121.5 121.5t168.5 45.5t168 -45.5t121 -121.5t45 -169q0 -92 -45 -168t-121 -121t-168 -45t-168.5 45t-121.5 121t-46 168zM228 1166q0 -52 25.5 -95t69 -68t95.5 -25t95 25t68.5 68t24.5 95q1 53 -24.5 96t-68.5 68.5t-95 25.5t-95.5 -25.5 t-69 -68.5t-25.5 -96z" />
<glyph unicode="&#xb1;" horiz-adv-x="1254" d="M158 70v162h938v-162h-938zM158 658v162h938v-162h-938zM546 360v758h162v-758h-162z" />
<glyph unicode="&#xb2;" horiz-adv-x="766" d="M48 1374q0 124 92.5 199.5t235.5 76.5q97 0 169.5 -35t113.5 -95t41 -136q0 -59 -24 -110t-75 -105.5t-131 -124.5l-190 -166v-6h446v-128h-672v114l340 302q77 68 115.5 116.5t38.5 105.5q0 65 -50 103.5t-124 38.5q-79 0 -127 -41.5t-47 -108.5h-152z" />
<glyph unicode="&#xb3;" horiz-adv-x="786" d="M40 994h160q2 -58 56.5 -94t135.5 -36q85 0 139.5 39.5t54.5 100.5t-58.5 100t-157.5 40h-72v116h72q82 0 136 36.5t54 97.5q0 56 -46 93t-120 37t-127.5 -36t-56.5 -98h-150q2 78 46.5 136t119.5 91t168 33q95 0 167 -32.5t112.5 -88t40.5 -127.5q0 -79 -53.5 -128.5 t-132.5 -63.5v-6q107 -15 164 -73t58 -139q0 -74 -46 -132.5t-126.5 -92t-185.5 -33.5q-100 0 -179.5 33t-125.5 92t-47 135z" />
<glyph unicode="&#xb4;" horiz-adv-x="794" d="M220 1258l140 274h194l-192 -274h-142z" />
<glyph unicode="&#xb5;" horiz-adv-x="1178" d="M110 -418v1536h170v-662q1 -90 39.5 -159t107.5 -107t163 -38q93 0 162 38.5t107.5 107t38.5 158.5v662h172v-1118h-172v166h-10q-45 -88 -125.5 -134.5t-172.5 -45.5q-94 -1 -174 45.5t-126 134.5h-10v-584h-170z" />
<glyph unicode="&#xb6;" horiz-adv-x="1132" d="M62 1022q1 134 57.5 239.5t166.5 167t268 61.5h446v-160h-362v-778h-84q-158 1 -268 62t-166.5 167t-57.5 241zM818 0v1490h182v-1490h-182z" />
<glyph unicode="&#xb7;" horiz-adv-x="486" d="M112 119q0 54 38.5 92.5t92.5 38.5t92.5 -38.5t38.5 -92.5t-38.5 -92.5t-92.5 -38.5t-92.5 38.5t-38.5 92.5z" />
<glyph unicode="&#xb8;" horiz-adv-x="450" d="M126 -136l30 142h142l-12 -58q57 -9 104.5 -48t47.5 -124q0 -94 -77.5 -153t-228.5 -59l-6 114q68 -1 113 20.5t45 71.5t-37.5 68.5t-120.5 25.5z" />
<glyph unicode="&#xb9;" horiz-adv-x="546" d="M34 1326v154l236 158h152v-894h-152v736h-6z" />
<glyph unicode="&#xba;" horiz-adv-x="824" d="M66 1044v78q0 104 42 184t120 126t184 46q161 0 253.5 -100.5t92.5 -255.5v-78q0 -154 -92 -253t-252 -99q-161 0 -255 99t-93 253zM240 1044q0 -89 43.5 -147.5t130.5 -58.5q86 0 127.5 58.5t42.5 147.5v78q-1 88 -43 147.5t-129 60.5q-85 -1 -128.5 -60.5t-43.5 -147.5 v-78z" />
<glyph unicode="&#xbb;" horiz-adv-x="1372" d="M88 160l280 450h166v-14l-294 -436h-152zM88 1054h152l294 -438v-14h-166zM822 160l280 450h166v-14l-294 -436h-152zM822 1054h152l294 -438v-14h-166z" />
<glyph unicode="&#xbc;" horiz-adv-x="1710" d="M22 1202v154l202 134h152v-792h-152v632h-8zM230 0l1024 1490h166l-1024 -1490h-166zM1016 142v120l382 530h104v-166h-64l-264 -358v-4h524v-122h-682zM1442 0v180l2 52v560h144v-792h-146z" />
<glyph unicode="&#xbd;" horiz-adv-x="1798" d="M22 1202v154l202 134h152v-792h-152v632h-8zM230 0l1024 1490h166l-1024 -1490h-166zM1142 552q0 112 84 181.5t218 68.5q136 1 217 -68.5t81 -171.5q0 -52 -21 -97.5t-67 -94.5t-122 -112l-160 -130v-6h398v-122h-618v110l310 262q70 59 102 99.5t32 86.5 q0 57 -44.5 91.5t-109.5 34.5t-109.5 -36.5t-44.5 -95.5h-146z" />
<glyph unicode="&#xbe;" horiz-adv-x="1844" d="M28 928h154q0 -50 48.5 -83.5t119.5 -32.5q73 -1 119.5 34t46.5 84q0 53 -51.5 85t-134.5 33h-64v106h64q72 1 120.5 32.5t47.5 81.5q1 48 -40.5 81t-107.5 33q-65 0 -111 -33t-45 -83h-148q1 68 40.5 121t108 83.5t155.5 29.5q131 1 214 -61.5t84 -158.5 q-1 -67 -49 -112t-127 -56v-6q99 -13 151.5 -64t52.5 -122q0 -67 -41.5 -120t-114.5 -83.5t-170 -30.5q-139 0 -230.5 68.5t-91.5 173.5zM364 0l1024 1490h166l-1024 -1490h-166zM1150 142v120l382 530h104v-166h-64l-264 -358v-4h524v-122h-682zM1576 0v180l2 52v560h144 v-792h-146z" />
<glyph unicode="&#xbf;" horiz-adv-x="942" d="M54 -4q0 122 53.5 208t148.5 144q65 40 104 76t56.5 89t17.5 143v10h174v-10q0 -138 -27.5 -213t-78.5 -118t-122 -87q-64 -38 -108 -100.5t-44 -149.5q0 -71 33.5 -123t89.5 -80.5t125 -28.5q59 0 114 24.5t92.5 77.5t43.5 138h182q-5 -123 -63.5 -210.5t-154.5 -134.5 t-214 -47q-128 0 -223 51t-147 139.5t-52 201.5zM388 995q0 54 38.5 92.5t92.5 38.5t92.5 -38.5t38.5 -92.5t-38.5 -92.5t-92.5 -38.5t-92.5 38.5t-38.5 92.5z" />
<glyph unicode="&#xc0;" d="M4 0l548 1490h186l546 -1490h-188l-446 1254h-12l-444 -1254h-190zM264 422v160h762v-160h-762zM394 1904h194l140 -274h-142z" />
<glyph unicode="&#xc1;" d="M4 0l548 1490h186l546 -1490h-188l-446 1254h-12l-444 -1254h-190zM264 422v160h762v-160h-762zM560 1630l140 274h194l-192 -274h-142z" />
<glyph unicode="&#xc2;" d="M4 0l548 1490h186l546 -1490h-188l-446 1254h-12l-444 -1254h-190zM264 422v160h762v-160h-762zM328 1622v12l236 304h158l234 -304v-12h-162l-152 204l-150 -204h-164z" />
<glyph unicode="&#xc3;" d="M4 0l548 1490h186l546 -1490h-188l-446 1254h-12l-444 -1254h-190zM264 422v160h762v-160h-762zM358 1665q3 88 41 146t117 58q38 0 71 -12.5t62 -29.5t55.5 -29.5t51.5 -12.5t37.5 19t17.5 61h119q-3 -92 -43.5 -147.5t-112.5 -55.5q-36 0 -71 12t-67 28.5t-58.5 28.5 t-44.5 12q-26 0 -38 -25t-14 -53h-123z" />
<glyph unicode="&#xc4;" d="M4 0l548 1490h186l546 -1490h-188l-446 1254h-12l-444 -1254h-190zM264 422v160h762v-160h-762zM318 1792q-1 50 34.5 83t81.5 33q50 0 83 -33t33 -83q0 -46 -33 -81.5t-83 -34.5q-46 -1 -81.5 34.5t-34.5 81.5zM736 1792q0 50 35 83t81 33q50 0 83.5 -33t32.5 -83 q1 -46 -32.5 -81.5t-83.5 -34.5q-46 -1 -81 34.5t-35 81.5z" />
<glyph unicode="&#xc5;" d="M4 0l548 1490h186l546 -1490h-188l-446 1254h-12l-444 -1254h-190zM264 422v160h762v-160h-762zM434 1802q-1 88 61 149.5t149 62.5q87 -1 149 -62.5t61 -149.5q1 -87 -61 -149t-149 -61q-87 -1 -149 61t-61 149zM540 1802q-1 -44 29 -75t75 -31t75 31t29 75q1 44 -29 75 t-75 31t-75 -31t-29 -75z" />
<glyph unicode="&#xc6;" horiz-adv-x="1932" d="M4 0l722 1490h1108v-160h-718v-504h672v-160h-672v-506h730v-160h-910v1330h-108l-626 -1330h-198zM346 422v160h680v-160h-680z" />
<glyph unicode="&#xc7;" horiz-adv-x="1394" d="M74 744q0 236 85 408t234 265t339 93q112 0 211.5 -33t179.5 -95.5t133.5 -153t73.5 -204.5h-180q-16 78 -55.5 137t-96 99.5t-124.5 61t-142 20.5q-135 0 -245 -68.5t-174.5 -202t-64.5 -327.5q0 -193 64.5 -326t174.5 -201.5t245 -68.5q74 0 142 20.5t124.5 61t96 99.5 t55.5 137h180q-20 -115 -73.5 -205t-133.5 -152.5t-179.5 -95.5t-211.5 -33q-190 0 -339 93t-234 264.5t-85 406.5zM626 -148l30 142h142l-12 -58q57 -9 104.5 -48t47.5 -124q0 -94 -77.5 -153t-228.5 -59l-6 114q68 -1 113 20.5t45 71.5t-37.5 68.5t-120.5 25.5z" />
<glyph unicode="&#xc8;" horiz-adv-x="1128" d="M132 0v1490h900v-160h-720v-498h672v-160h-672v-512h730v-160h-910zM330 1904h194l140 -274h-142z" />
<glyph unicode="&#xc9;" horiz-adv-x="1128" d="M132 0v1490h900v-160h-720v-498h672v-160h-672v-512h730v-160h-910zM496 1630l140 274h194l-192 -274h-142z" />
<glyph unicode="&#xca;" horiz-adv-x="1128" d="M132 0v1490h900v-160h-720v-498h672v-160h-672v-512h730v-160h-910zM264 1622v12l236 304h158l234 -304v-12h-162l-152 204l-150 -204h-164z" />
<glyph unicode="&#xcb;" horiz-adv-x="1128" d="M132 0v1490h900v-160h-720v-498h672v-160h-672v-512h730v-160h-910zM254 1792q-1 50 34.5 83t81.5 33q50 0 83 -33t33 -83q0 -46 -33 -81.5t-83 -34.5q-46 -1 -81.5 34.5t-34.5 81.5zM672 1792q0 50 35 83t81 33q50 0 83.5 -33t32.5 -83q1 -46 -32.5 -81.5t-83.5 -34.5 q-46 -1 -81 34.5t-35 81.5z" />
<glyph unicode="&#xcc;" horiz-adv-x="444" d="M-28 1904h194l140 -274h-142zM132 0v1490h180v-1490h-180z" />
<glyph unicode="&#xcd;" horiz-adv-x="444" d="M132 0v1490h180v-1490h-180zM138 1630l140 274h194l-192 -274h-142z" />
<glyph unicode="&#xce;" horiz-adv-x="444" d="M-94 1622v12l236 304h158l234 -304v-12h-162l-152 204l-150 -204h-164zM132 0v1490h180v-1490h-180z" />
<glyph unicode="&#xcf;" horiz-adv-x="444" d="M-104 1792q-1 50 34.5 83t81.5 33q50 0 83 -33t33 -83q0 -46 -33 -81.5t-83 -34.5q-46 -1 -81.5 34.5t-34.5 81.5zM132 0v1490h180v-1490h-180zM314 1792q0 50 35 83t81 33q50 0 83.5 -33t32.5 -83q1 -46 -32.5 -81.5t-83.5 -34.5q-46 -1 -81 34.5t-35 81.5z" />
<glyph unicode="&#xd0;" horiz-adv-x="1376" d="M-98 700v134h640v-134h-640zM132 0v1490h180v-1490h-180zM226 1330v160h386q217 0 371.5 -89t236.5 -255.5t82 -397.5q0 -233 -83 -400.5t-241.5 -257.5t-385.5 -90h-358v160h346q185 0 306.5 71t181.5 203t60 314q0 180 -59 310.5t-176.5 201t-292.5 70.5h-374z" />
<glyph unicode="&#xd1;" horiz-adv-x="1448" d="M132 0v1490h174l816 -1172h14v1172h180v-1490h-178l-810 1170h-16v-1170h-180zM436 1651q3 88 41 146t117 58q38 0 71 -12.5t62 -29.5t55.5 -29.5t51.5 -12.5t37.5 19t17.5 61h119q-3 -92 -43.5 -147.5t-112.5 -55.5q-36 0 -71 12t-67 28.5t-58.5 28.5t-44.5 12 q-26 0 -38 -25t-14 -53h-123z" />
<glyph unicode="&#xd2;" horiz-adv-x="1464" d="M74 744q0 236 85.5 408t234.5 265t339 93q191 0 339 -93t233 -265t85 -408q0 -235 -85 -406.5t-233 -264.5t-339 -93q-190 0 -339 93t-234.5 264.5t-85.5 406.5zM248 744q0 -193 65 -326t175 -201.5t245 -68.5t244.5 68.5t174 201.5t64.5 326q0 194 -64.5 327.5t-174 202 t-244.5 68.5t-245 -68.5t-175 -202t-65 -327.5zM483 1904h194l140 -274h-142z" />
<glyph unicode="&#xd3;" horiz-adv-x="1464" d="M74 744q0 236 85.5 408t234.5 265t339 93q191 0 339 -93t233 -265t85 -408q0 -235 -85 -406.5t-233 -264.5t-339 -93q-190 0 -339 93t-234.5 264.5t-85.5 406.5zM248 744q0 -193 65 -326t175 -201.5t245 -68.5t244.5 68.5t174 201.5t64.5 326q0 194 -64.5 327.5t-174 202 t-244.5 68.5t-245 -68.5t-175 -202t-65 -327.5zM649 1630l140 274h194l-192 -274h-142z" />
<glyph unicode="&#xd4;" horiz-adv-x="1464" d="M74 744q0 236 85.5 408t234.5 265t339 93q191 0 339 -93t233 -265t85 -408q0 -235 -85 -406.5t-233 -264.5t-339 -93q-190 0 -339 93t-234.5 264.5t-85.5 406.5zM248 744q0 -193 65 -326t175 -201.5t245 -68.5t244.5 68.5t174 201.5t64.5 326q0 194 -64.5 327.5t-174 202 t-244.5 68.5t-245 -68.5t-175 -202t-65 -327.5zM417 1622v12l236 304h158l234 -304v-12h-162l-152 204l-150 -204h-164z" />
<glyph unicode="&#xd5;" horiz-adv-x="1464" d="M74 744q0 236 85.5 408t234.5 265t339 93q191 0 339 -93t233 -265t85 -408q0 -235 -85 -406.5t-233 -264.5t-339 -93q-190 0 -339 93t-234.5 264.5t-85.5 406.5zM248 744q0 -193 65 -326t175 -201.5t245 -68.5t244.5 68.5t174 201.5t64.5 326q0 194 -64.5 327.5t-174 202 t-244.5 68.5t-245 -68.5t-175 -202t-65 -327.5zM447 1665q3 88 41 146t117 58q38 0 71 -12.5t62 -29.5t55.5 -29.5t51.5 -12.5t37.5 19t17.5 61h119q-3 -92 -43.5 -147.5t-112.5 -55.5q-36 0 -71 12t-67 28.5t-58.5 28.5t-44.5 12q-26 0 -38 -25t-14 -53h-123z" />
<glyph unicode="&#xd6;" horiz-adv-x="1464" d="M74 744q0 236 85.5 408t234.5 265t339 93q191 0 339 -93t233 -265t85 -408q0 -235 -85 -406.5t-233 -264.5t-339 -93q-190 0 -339 93t-234.5 264.5t-85.5 406.5zM248 744q0 -193 65 -326t175 -201.5t245 -68.5t244.5 68.5t174 201.5t64.5 326q0 194 -64.5 327.5t-174 202 t-244.5 68.5t-245 -68.5t-175 -202t-65 -327.5zM407 1792q-1 50 34.5 83t81.5 33q50 0 83 -33t33 -83q0 -46 -33 -81.5t-83 -34.5q-46 -1 -81.5 34.5t-34.5 81.5zM825 1792q0 50 35 83t81 33q50 0 83.5 -33t32.5 -83q1 -46 -32.5 -81.5t-83.5 -34.5q-46 -1 -81 34.5 t-35 81.5z" />
<glyph unicode="&#xd7;" horiz-adv-x="1254" d="M162 226l820 822l110 -112l-820 -820zM162 936l110 112l820 -822l-110 -110z" />
<glyph unicode="&#xd8;" horiz-adv-x="1464" d="M74 744q0 236 85.5 408t234.5 265t339 93q191 0 339 -93t233 -265t85 -408q0 -235 -85 -406.5t-233 -264.5t-339 -93q-190 0 -339 93t-234.5 264.5t-85.5 406.5zM156 14l1036 1534l110 -76l-1036 -1534zM248 744q0 -193 65 -326t175 -201.5t245 -68.5t244.5 68.5 t174 201.5t64.5 326q0 194 -64.5 327.5t-174 202t-244.5 68.5t-245 -68.5t-175 -202t-65 -327.5z" />
<glyph unicode="&#xd9;" horiz-adv-x="1422" d="M132 504v986h180v-972q0 -109 48 -194t138 -133.5t214 -48.5t213 48.5t137 133.5t48 194v972h180v-986q0 -153 -71.5 -272.5t-201.5 -188.5t-305 -69t-305.5 69t-202.5 188.5t-72 272.5zM462 1904h194l140 -274h-142z" />
<glyph unicode="&#xda;" horiz-adv-x="1422" d="M132 504v986h180v-972q0 -109 48 -194t138 -133.5t214 -48.5t213 48.5t137 133.5t48 194v972h180v-986q0 -153 -71.5 -272.5t-201.5 -188.5t-305 -69t-305.5 69t-202.5 188.5t-72 272.5zM628 1630l140 274h194l-192 -274h-142z" />
<glyph unicode="&#xdb;" horiz-adv-x="1422" d="M132 504v986h180v-972q0 -109 48 -194t138 -133.5t214 -48.5t213 48.5t137 133.5t48 194v972h180v-986q0 -153 -71.5 -272.5t-201.5 -188.5t-305 -69t-305.5 69t-202.5 188.5t-72 272.5zM396 1622v12l236 304h158l234 -304v-12h-162l-152 204l-150 -204h-164z" />
<glyph unicode="&#xdc;" horiz-adv-x="1422" d="M132 504v986h180v-972q0 -109 48 -194t138 -133.5t214 -48.5t213 48.5t137 133.5t48 194v972h180v-986q0 -153 -71.5 -272.5t-201.5 -188.5t-305 -69t-305.5 69t-202.5 188.5t-72 272.5zM386 1792q-1 50 34.5 83t81.5 33q50 0 83 -33t33 -83q0 -46 -33 -81.5t-83 -34.5 q-46 -1 -81.5 34.5t-34.5 81.5zM804 1792q0 50 35 83t81 33q50 0 83.5 -33t32.5 -83q1 -46 -32.5 -81.5t-83.5 -34.5q-46 -1 -81 34.5t-35 81.5z" />
<glyph unicode="&#xdd;" horiz-adv-x="1266" d="M4 1490h206l414 -696h18l412 696h208l-540 -876v-614h-180v614zM548 1630l140 274h194l-192 -274h-142z" />
<glyph unicode="&#xde;" horiz-adv-x="1196" d="M120 0v1490h182v-1490h-182zM206 326v160h384q103 0 174 31t108.5 90t37.5 143q0 85 -37.5 145.5t-108.5 93.5t-174 33h-384v160h384q158 0 267.5 -58t166.5 -155t56 -215q1 -118 -56 -215t-166.5 -155t-267.5 -58h-384z" />
<glyph unicode="&#xdf;" horiz-adv-x="1152" d="M132 0v1108q0 125 55 215t152 138.5t223 48.5q124 0 222 -46.5t155 -132.5t57 -205q0 -127 -65.5 -214t-170.5 -124v-14q143 -14 233.5 -111.5t90.5 -252.5q0 -117 -54 -210t-151.5 -146.5t-228.5 -53.5h-162v160h166q118 0 188 70.5t70 179.5q0 116 -77.5 190t-210.5 74 h-130v164h92q74 0 127 37.5t82 97.5t29 127q0 104 -69 177t-189 73q-113 0 -187.5 -67.5t-74.5 -174.5v-1108h-172z" />
<glyph unicode="&#xe0;" horiz-adv-x="1060" d="M56 318q0 96 38 155.5t101.5 94t140 51.5t154.5 27q102 13 165.5 20t93 24t29.5 58v6q0 107 -58.5 166.5t-177.5 59.5q-122 0 -192 -53.5t-98 -114.5l-164 58q44 102 117.5 159t160 80t170.5 23q54 0 124 -12.5t136.5 -52t110 -119t43.5 -212.5v-736h-172v152h-8 q-17 -36 -58 -77.5t-108.5 -71t-165.5 -29.5q-106 0 -193 40.5t-138 117.5t-51 186zM228 308q0 -89 66.5 -134.5t169.5 -45.5q102 0 172 40t106 103.5t36 132.5v158q-11 -13 -47.5 -23.5t-84 -18.5t-92.5 -13.5t-72 -8.5q-67 -9 -125 -28.5t-93.5 -57.5t-35.5 -104z M298 1532h194l140 -274h-142z" />
<glyph unicode="&#xe1;" horiz-adv-x="1060" d="M56 318q0 96 38 155.5t101.5 94t140 51.5t154.5 27q102 13 165.5 20t93 24t29.5 58v6q0 107 -58.5 166.5t-177.5 59.5q-122 0 -192 -53.5t-98 -114.5l-164 58q44 102 117.5 159t160 80t170.5 23q54 0 124 -12.5t136.5 -52t110 -119t43.5 -212.5v-736h-172v152h-8 q-17 -36 -58 -77.5t-108.5 -71t-165.5 -29.5q-106 0 -193 40.5t-138 117.5t-51 186zM228 308q0 -89 66.5 -134.5t169.5 -45.5q102 0 172 40t106 103.5t36 132.5v158q-11 -13 -47.5 -23.5t-84 -18.5t-92.5 -13.5t-72 -8.5q-67 -9 -125 -28.5t-93.5 -57.5t-35.5 -104z M464 1258l140 274h194l-192 -274h-142z" />
<glyph unicode="&#xe2;" horiz-adv-x="1060" d="M56 318q0 96 38 155.5t101.5 94t140 51.5t154.5 27q102 13 165.5 20t93 24t29.5 58v6q0 107 -58.5 166.5t-177.5 59.5q-122 0 -192 -53.5t-98 -114.5l-164 58q44 102 117.5 159t160 80t170.5 23q54 0 124 -12.5t136.5 -52t110 -119t43.5 -212.5v-736h-172v152h-8 q-17 -36 -58 -77.5t-108.5 -71t-165.5 -29.5q-106 0 -193 40.5t-138 117.5t-51 186zM228 308q0 -89 66.5 -134.5t169.5 -45.5q102 0 172 40t106 103.5t36 132.5v158q-11 -13 -47.5 -23.5t-84 -18.5t-92.5 -13.5t-72 -8.5q-67 -9 -125 -28.5t-93.5 -57.5t-35.5 -104z M232 1250v12l236 304h158l234 -304v-12h-162l-152 204l-150 -204h-164z" />
<glyph unicode="&#xe3;" horiz-adv-x="1060" d="M56 318q0 96 38 155.5t101.5 94t140 51.5t154.5 27q102 13 165.5 20t93 24t29.5 58v6q0 107 -58.5 166.5t-177.5 59.5q-122 0 -192 -53.5t-98 -114.5l-164 58q44 102 117.5 159t160 80t170.5 23q54 0 124 -12.5t136.5 -52t110 -119t43.5 -212.5v-736h-172v152h-8 q-17 -36 -58 -77.5t-108.5 -71t-165.5 -29.5q-106 0 -193 40.5t-138 117.5t-51 186zM228 308q0 -89 66.5 -134.5t169.5 -45.5q102 0 172 40t106 103.5t36 132.5v158q-11 -13 -47.5 -23.5t-84 -18.5t-92.5 -13.5t-72 -8.5q-67 -9 -125 -28.5t-93.5 -57.5t-35.5 -104z M262 1279q3 88 41 146t117 58q38 0 71 -12.5t62 -29.5t55.5 -29.5t51.5 -12.5t37.5 19t17.5 61h119q-3 -92 -43.5 -147.5t-112.5 -55.5q-36 0 -71 12t-67 28.5t-58.5 28.5t-44.5 12q-26 0 -38 -25t-14 -53h-123z" />
<glyph unicode="&#xe4;" horiz-adv-x="1060" d="M56 318q0 96 38 155.5t101.5 94t140 51.5t154.5 27q102 13 165.5 20t93 24t29.5 58v6q0 107 -58.5 166.5t-177.5 59.5q-122 0 -192 -53.5t-98 -114.5l-164 58q44 102 117.5 159t160 80t170.5 23q54 0 124 -12.5t136.5 -52t110 -119t43.5 -212.5v-736h-172v152h-8 q-17 -36 -58 -77.5t-108.5 -71t-165.5 -29.5q-106 0 -193 40.5t-138 117.5t-51 186zM222 1420q-1 50 34.5 83t81.5 33q50 0 83 -33t33 -83q0 -46 -33 -81.5t-83 -34.5q-46 -1 -81.5 34.5t-34.5 81.5zM228 308q0 -89 66.5 -134.5t169.5 -45.5q102 0 172 40t106 103.5 t36 132.5v158q-11 -13 -47.5 -23.5t-84 -18.5t-92.5 -13.5t-72 -8.5q-67 -9 -125 -28.5t-93.5 -57.5t-35.5 -104zM640 1420q0 50 35 83t81 33q50 0 83.5 -33t32.5 -83q1 -46 -32.5 -81.5t-83.5 -34.5q-46 -1 -81 34.5t-35 81.5z" />
<glyph unicode="&#xe5;" horiz-adv-x="1060" d="M56 318q0 96 38 155.5t101.5 94t140 51.5t154.5 27q102 13 165.5 20t93 24t29.5 58v6q0 107 -58.5 166.5t-177.5 59.5q-122 0 -192 -53.5t-98 -114.5l-164 58q44 102 117.5 159t160 80t170.5 23q54 0 124 -12.5t136.5 -52t110 -119t43.5 -212.5v-736h-172v152h-8 q-17 -36 -58 -77.5t-108.5 -71t-165.5 -29.5q-106 0 -193 40.5t-138 117.5t-51 186zM228 308q0 -89 66.5 -134.5t169.5 -45.5q102 0 172 40t106 103.5t36 132.5v158q-11 -13 -47.5 -23.5t-84 -18.5t-92.5 -13.5t-72 -8.5q-67 -9 -125 -28.5t-93.5 -57.5t-35.5 -104z M284 1490q0 70 35 128t95 93t134 35t133.5 -35t94 -93t34.5 -128t-34.5 -126t-94 -89t-133.5 -33t-134 33t-95 89t-35 126zM408 1490q0 -52 39.5 -94.5t100.5 -43.5q61 1 100.5 43.5t39.5 94.5q0 54 -39.5 98t-100.5 44t-100.5 -44t-39.5 -98z" />
<glyph unicode="&#xe6;" horiz-adv-x="1794" d="M56 318q0 96 38 156t101.5 94t140.5 51t154 27q102 13 165.5 20.5t93 24t29.5 57.5v6q0 107 -58.5 166.5t-177.5 59.5q-121 0 -191.5 -53.5t-98.5 -114.5l-164 58q44 102 117.5 159t160 80t170.5 23q45 0 102 -8.5t114.5 -33t105 -73t72.5 -129.5l-68 -684h-14 q-22 -62 -82 -114.5t-145 -84t-183 -31.5q-106 0 -193 40.5t-138 117.5t-51 186zM228 308q0 -89 66.5 -134.5t169.5 -45.5q102 0 172 40t106 103.5t36 132.5v158q-11 -13 -47.5 -23.5t-84 -18.5t-92.5 -13.5t-72 -8.5q-67 -9 -125 -28.5t-93.5 -57.5t-35.5 -104zM818 306 l32 556q56 126 159.5 198t252.5 72q87 0 172 -29t155 -94t111.5 -172t41.5 -263v-74h-862v148h686q0 95 -37.5 169.5t-105.5 117.5t-161 43q-103 0 -177.5 -50.5t-114.5 -132t-40 -173.5v-98q0 -126 44 -214t122.5 -134t181.5 -46q68 0 123 19.5t95 59t62 97.5l166 -48 q-26 -84 -88 -147.5t-153 -99t-205 -35.5q-185 0 -308 92t-152 238z" />
<glyph unicode="&#xe7;" horiz-adv-x="1054" d="M56 552q0 171 63 301.5t176.5 204.5t264.5 74q118 0 212.5 -43.5t155 -122.5t74.5 -184h-172q-13 51 -47 96t-89.5 72.5t-131.5 27.5q-100 0 -175 -52t-117 -146.5t-42 -221.5q0 -129 41 -225.5t116.5 -149.5t176.5 -53t173 52.5t95 143.5h172q-14 -99 -71.5 -178 t-151 -125.5t-217.5 -46.5q-156 0 -269.5 74.5t-175 204.5t-61.5 297zM452 -136l30 142h142l-12 -58q57 -9 104.5 -48t47.5 -124q0 -94 -77.5 -153t-228.5 -59l-6 114q68 -1 113 20.5t45 71.5t-37.5 68.5t-120.5 25.5z" />
<glyph unicode="&#xe8;" horiz-adv-x="1092" d="M56 550q0 172 62 303t174.5 205t263.5 74q87 0 173 -29t156.5 -94t112.5 -172t42 -263v-74h-862v148h769l-79 -56q0 112 -35 199t-104.5 137t-172.5 50t-176.5 -50.5t-112.5 -131.5t-39 -174v-98q0 -127 44 -215t123 -133.5t183 -45.5q67 0 122 19.5t95 59t61 97.5 l166 -48q-26 -84 -87.5 -147.5t-152.5 -99t-204 -35.5q-161 0 -278.5 72t-180.5 201.5t-63 300.5zM302 1532h194l140 -274h-142z" />
<glyph unicode="&#xe9;" horiz-adv-x="1092" d="M56 550q0 172 62 303t174.5 205t263.5 74q87 0 173 -29t156.5 -94t112.5 -172t42 -263v-74h-862v148h769l-79 -56q0 112 -35 199t-104.5 137t-172.5 50t-176.5 -50.5t-112.5 -131.5t-39 -174v-98q0 -127 44 -215t123 -133.5t183 -45.5q67 0 122 19.5t95 59t61 97.5 l166 -48q-26 -84 -87.5 -147.5t-152.5 -99t-204 -35.5q-161 0 -278.5 72t-180.5 201.5t-63 300.5zM468 1258l140 274h194l-192 -274h-142z" />
<glyph unicode="&#xea;" horiz-adv-x="1092" d="M56 550q0 172 62 303t174.5 205t263.5 74q87 0 173 -29t156.5 -94t112.5 -172t42 -263v-74h-862v148h769l-79 -56q0 112 -35 199t-104.5 137t-172.5 50t-176.5 -50.5t-112.5 -131.5t-39 -174v-98q0 -127 44 -215t123 -133.5t183 -45.5q67 0 122 19.5t95 59t61 97.5 l166 -48q-26 -84 -87.5 -147.5t-152.5 -99t-204 -35.5q-161 0 -278.5 72t-180.5 201.5t-63 300.5zM236 1250v12l236 304h158l234 -304v-12h-162l-152 204l-150 -204h-164z" />
<glyph unicode="&#xeb;" horiz-adv-x="1092" d="M56 550q0 172 62 303t174.5 205t263.5 74q87 0 173 -29t156.5 -94t112.5 -172t42 -263v-74h-862v148h769l-79 -56q0 112 -35 199t-104.5 137t-172.5 50t-176.5 -50.5t-112.5 -131.5t-39 -174v-98q0 -127 44 -215t123 -133.5t183 -45.5q67 0 122 19.5t95 59t61 97.5 l166 -48q-26 -84 -87.5 -147.5t-152.5 -99t-204 -35.5q-161 0 -278.5 72t-180.5 201.5t-63 300.5zM226 1420q-1 50 34.5 83t81.5 33q50 0 83 -33t33 -83q0 -46 -33 -81.5t-83 -34.5q-46 -1 -81.5 34.5t-34.5 81.5zM644 1420q0 50 35 83t81 33q50 0 83.5 -33t32.5 -83 q1 -46 -32.5 -81.5t-83.5 -34.5q-46 -1 -81 34.5t-35 81.5z" />
<glyph unicode="&#xec;" horiz-adv-x="390" d="M-54 1532h194l140 -274h-142zM110 0v1118h170v-1118h-170z" />
<glyph unicode="&#xed;" horiz-adv-x="390" d="M110 0v1118h170v-1118h-170zM112 1258l140 274h194l-192 -274h-142z" />
<glyph unicode="&#xee;" horiz-adv-x="390" d="M-120 1250v12l236 304h158l234 -304v-12h-162l-152 204l-150 -204h-164zM110 0v1118h170v-1118h-170z" />
<glyph unicode="&#xef;" horiz-adv-x="390" d="M-130 1420q-1 50 34.5 83t81.5 33q50 0 83 -33t33 -83q0 -46 -33 -81.5t-83 -34.5q-46 -1 -81.5 34.5t-34.5 81.5zM110 0v1118h170v-1118h-170zM288 1420q0 50 35 83t81 33q50 0 83.5 -33t32.5 -83q1 -46 -32.5 -81.5t-83.5 -34.5q-46 -1 -81 34.5t-35 81.5z" />
<glyph unicode="&#xf0;" horiz-adv-x="1090" d="M56 512q1 159 60.5 279.5t161 188.5t224.5 68q85 0 148 -29.5t106.5 -73t67.5 -87.5h16q-32 91 -96.5 197t-175.5 211.5t-284 193.5l76 122q122 -63 241.5 -161t217.5 -229t156.5 -293t58.5 -353q0 -180 -61 -307.5t-170.5 -194.5t-256.5 -68q-150 1 -260 70t-169.5 190 t-60.5 276zM228 512q0 -99 32.5 -186t103 -141t182.5 -55q106 1 177.5 50.5t108 133t36.5 186.5q0 95 -33 188t-103.5 155t-185.5 61q-106 1 -177 -53.5t-106 -144t-35 -194.5zM272 1236l596 288l50 -108l-596 -288z" />
<glyph unicode="&#xf1;" horiz-adv-x="1104" d="M110 0v1118h164v-176h16q39 86 119 138t207 52q113 0 198 -46t132.5 -139.5t47.5 -236.5v-710h-170v698q0 131 -69 205.5t-188 74.5q-82 0 -147 -36t-102.5 -104t-37.5 -166v-672h-170zM266 1279q3 88 41 146t117 58q38 0 71 -12.5t62 -29.5t55.5 -29.5t51.5 -12.5 t37.5 19t17.5 61h119q-3 -92 -43.5 -147.5t-112.5 -55.5q-36 0 -71 12t-67 28.5t-58.5 28.5t-44.5 12q-26 0 -38 -25t-14 -53h-123z" />
<glyph unicode="&#xf2;" horiz-adv-x="1126" d="M56 552q0 175 63.5 305.5t177.5 202.5t265 72q152 0 266 -72t178 -202.5t64 -305.5q0 -172 -64 -302t-178 -202t-266 -72q-151 0 -265 72t-177.5 202t-63.5 302zM228 552q0 -111 36 -207.5t110 -155.5t188 -59q116 0 190 59t110 155.5t36 207.5q0 113 -36 210t-110 156.5 t-190 59.5q-114 0 -188 -59.5t-110 -156.5t-36 -210zM312 1532h194l140 -274h-142z" />
<glyph unicode="&#xf3;" horiz-adv-x="1126" d="M56 552q0 175 63.5 305.5t177.5 202.5t265 72q152 0 266 -72t178 -202.5t64 -305.5q0 -172 -64 -302t-178 -202t-266 -72q-151 0 -265 72t-177.5 202t-63.5 302zM228 552q0 -111 36 -207.5t110 -155.5t188 -59q116 0 190 59t110 155.5t36 207.5q0 113 -36 210t-110 156.5 t-190 59.5q-114 0 -188 -59.5t-110 -156.5t-36 -210zM478 1258l140 274h194l-192 -274h-142z" />
<glyph unicode="&#xf4;" horiz-adv-x="1126" d="M56 552q0 175 63.5 305.5t177.5 202.5t265 72q152 0 266 -72t178 -202.5t64 -305.5q0 -172 -64 -302t-178 -202t-266 -72q-151 0 -265 72t-177.5 202t-63.5 302zM228 552q0 -111 36 -207.5t110 -155.5t188 -59q116 0 190 59t110 155.5t36 207.5q0 113 -36 210t-110 156.5 t-190 59.5q-114 0 -188 -59.5t-110 -156.5t-36 -210zM246 1250v12l236 304h158l234 -304v-12h-162l-152 204l-150 -204h-164z" />
<glyph unicode="&#xf5;" horiz-adv-x="1126" d="M56 552q0 175 63.5 305.5t177.5 202.5t265 72q152 0 266 -72t178 -202.5t64 -305.5q0 -172 -64 -302t-178 -202t-266 -72q-151 0 -265 72t-177.5 202t-63.5 302zM228 552q0 -111 36 -207.5t110 -155.5t188 -59q116 0 190 59t110 155.5t36 207.5q0 113 -36 210t-110 156.5 t-190 59.5q-114 0 -188 -59.5t-110 -156.5t-36 -210zM276 1279q3 88 41 146t117 58q38 0 71 -12.5t62 -29.5t55.5 -29.5t51.5 -12.5t37.5 19t17.5 61h119q-3 -92 -43.5 -147.5t-112.5 -55.5q-36 0 -71 12t-67 28.5t-58.5 28.5t-44.5 12q-26 0 -38 -25t-14 -53h-123z" />
<glyph unicode="&#xf6;" horiz-adv-x="1126" d="M56 552q0 175 63.5 305.5t177.5 202.5t265 72q152 0 266 -72t178 -202.5t64 -305.5q0 -172 -64 -302t-178 -202t-266 -72q-151 0 -265 72t-177.5 202t-63.5 302zM228 552q0 -111 36 -207.5t110 -155.5t188 -59q116 0 190 59t110 155.5t36 207.5q0 113 -36 210t-110 156.5 t-190 59.5q-114 0 -188 -59.5t-110 -156.5t-36 -210zM236 1420q-1 50 34.5 83t81.5 33q50 0 83 -33t33 -83q0 -46 -33 -81.5t-83 -34.5q-46 -1 -81.5 34.5t-34.5 81.5zM654 1420q0 50 35 83t81 33q50 0 83.5 -33t32.5 -83q1 -46 -32.5 -81.5t-83.5 -34.5q-46 -1 -81 34.5 t-35 81.5z" />
<glyph unicode="&#xf7;" horiz-adv-x="1254" d="M162 500v164h930v-164h-930zM496 206q0 53 38 91t92 37q53 1 91 -37t37 -91q1 -54 -37 -92t-91 -38q-54 0 -92 38t-38 92zM496 960q0 53 38 90.5t92 37.5q53 0 91 -37.5t37 -90.5q1 -55 -37 -93t-91 -37q-54 -1 -92 37t-38 93z" />
<glyph unicode="&#xf8;" horiz-adv-x="1126" d="M56 552q0 175 63.5 305.5t177.5 202.5t265 72q152 0 266 -72t178 -202.5t64 -305.5q0 -172 -64 -302t-178 -202t-266 -72q-151 0 -265 72t-177.5 202t-63.5 302zM118 14l780 1156l110 -76l-780 -1156zM228 552q0 -111 36 -207.5t110 -155.5t188 -59q116 0 190 59 t110 155.5t36 207.5q0 113 -36 210t-110 156.5t-190 59.5q-114 0 -188 -59.5t-110 -156.5t-36 -210z" />
<glyph unicode="&#xf9;" horiz-adv-x="1094" d="M110 408v710h170v-700q0 -121 69.5 -194t176.5 -72q64 0 130.5 32.5t112 100t45.5 171.5v662h170v-1118h-170v190h-12q-40 -85 -122.5 -145t-209.5 -59q-105 0 -186 45.5t-127.5 139.5t-46.5 237zM298 1532h194l140 -274h-142z" />
<glyph unicode="&#xfa;" horiz-adv-x="1094" d="M110 408v710h170v-700q0 -121 69.5 -194t176.5 -72q64 0 130.5 32.5t112 100t45.5 171.5v662h170v-1118h-170v190h-12q-40 -85 -122.5 -145t-209.5 -59q-105 0 -186 45.5t-127.5 139.5t-46.5 237zM464 1258l140 274h194l-192 -274h-142z" />
<glyph unicode="&#xfb;" horiz-adv-x="1094" d="M110 408v710h170v-700q0 -121 69.5 -194t176.5 -72q64 0 130.5 32.5t112 100t45.5 171.5v662h170v-1118h-170v190h-12q-40 -85 -122.5 -145t-209.5 -59q-105 0 -186 45.5t-127.5 139.5t-46.5 237zM232 1250v12l236 304h158l234 -304v-12h-162l-152 204l-150 -204h-164z " />
<glyph unicode="&#xfc;" horiz-adv-x="1094" d="M110 408v710h170v-700q0 -121 69.5 -194t176.5 -72q64 0 130.5 32.5t112 100t45.5 171.5v662h170v-1118h-170v190h-12q-40 -85 -122.5 -145t-209.5 -59q-105 0 -186 45.5t-127.5 139.5t-46.5 237zM222 1420q-1 50 34.5 83t81.5 33q50 0 83 -33t33 -83q0 -46 -33 -81.5 t-83 -34.5q-46 -1 -81.5 34.5t-34.5 81.5zM640 1420q0 50 35 83t81 33q50 0 83.5 -33t32.5 -83q1 -46 -32.5 -81.5t-83.5 -34.5q-46 -1 -81 34.5t-35 81.5z" />
<glyph unicode="&#xfd;" horiz-adv-x="1044" d="M22 1118h186l308 -892h12l308 892h186l-474 -1280q-32 -87 -79 -144t-109 -84.5t-140 -27.5q-44 -1 -78 6t-48 14l44 150l17 -4q86 -20 144.5 8.5t102.5 149.5l32 88zM438 1258l140 274h194l-192 -274h-142z" />
<glyph unicode="&#xfe;" horiz-adv-x="1150" d="M110 -418v1908h170v-550h14q19 29 53 74.5t98 81.5t173 36q141 0 248 -70.5t167.5 -200t60.5 -305.5q0 -177 -60 -307.5t-167 -201.5t-247 -71q-107 0 -172 36.5t-100 83t-54 76.5h-14v-590h-170zM278 558q0 -126 37 -222.5t108.5 -151t174.5 -54.5q107 0 179 57.5 t108.5 154.5t36.5 216q0 118 -36 213t-107.5 151t-180.5 56q-105 0 -176 -52.5t-107.5 -147t-36.5 -220.5z" />
<glyph unicode="&#xff;" horiz-adv-x="1044" d="M22 1118h186l308 -892h12l308 892h186l-474 -1280q-32 -87 -79 -144t-109 -84.5t-140 -27.5q-44 -1 -78 6t-48 14l44 150l17 -4q86 -20 144.5 8.5t102.5 149.5l32 88zM196 1420q-1 50 34.5 83t81.5 33q50 0 83 -33t33 -83q0 -46 -33 -81.5t-83 -34.5q-46 -1 -81.5 34.5 t-34.5 81.5zM614 1420q0 50 35 83t81 33q50 0 83.5 -33t32.5 -83q1 -46 -32.5 -81.5t-83.5 -34.5q-46 -1 -81 34.5t-35 81.5z" />
<glyph unicode="&#x152;" horiz-adv-x="1944" d="M74 744q0 225 82.5 392.5t231 260.5t344.5 93h288v-160h-288q-144 0 -253 -73t-169.5 -204.5t-61.5 -308.5q1 -174 61.5 -305.5t169.5 -205t253 -73.5h288v-160h-288q-196 0 -344.5 93.5t-231 261t-82.5 389.5zM948 0v1490h900v-160h-720v-498h672v-160h-672v-512h730 v-160h-910z" />
<glyph unicode="&#x153;" horiz-adv-x="1945" d="M56 552q0 175 63.5 305.5t177.5 202.5t265 72q152 0 266 -72t178 -202.5t64 -305.5q0 -172 -64 -302t-178 -202t-266 -72q-151 0 -265 72t-177.5 202t-63.5 302zM228 552q0 -111 36 -207.5t110 -155.5t188 -59q116 0 190 59t110 155.5t36 207.5q0 113 -36 210t-110 156.5 t-190 59.5q-114 0 -188 -59.5t-110 -156.5t-36 -210zM909 550q0 172 62 303t174.5 205t263.5 74q87 0 173 -29t156.5 -94t112.5 -172t42 -263v-74h-862v148h769l-79 -56q0 112 -35 199t-104.5 137t-172.5 50t-176.5 -50.5t-112.5 -131.5t-39 -174v-98q0 -127 44 -215 t123 -133.5t183 -45.5q67 0 122 19.5t95 59t61 97.5l166 -48q-26 -84 -87.5 -147.5t-152.5 -99t-204 -35.5q-161 0 -278.5 72t-180.5 201.5t-63 300.5z" />
<glyph unicode="&#x178;" horiz-adv-x="1266" d="M4 1490h206l414 -696h18l412 696h208l-540 -876v-614h-180v614zM306 1792q-1 50 34.5 83t81.5 33q50 0 83 -33t33 -83q0 -46 -33 -81.5t-83 -34.5q-46 -1 -81.5 34.5t-34.5 81.5zM724 1792q0 50 35 83t81 33q50 0 83.5 -33t32.5 -83q1 -46 -32.5 -81.5t-83.5 -34.5 q-46 -1 -81 34.5t-35 81.5z" />
<glyph unicode="&#x2c6;" horiz-adv-x="834" d="M102 1250v12l236 304h158l234 -304v-12h-162l-152 204l-150 -204h-164z" />
<glyph unicode="&#x2dc;" horiz-adv-x="928" d="M178 1279q3 88 41 146t117 58q38 0 71 -12.5t62 -29.5t55.5 -29.5t51.5 -12.5t37.5 19t17.5 61h119q-3 -92 -43.5 -147.5t-112.5 -55.5q-36 0 -71 12t-67 28.5t-58.5 28.5t-44.5 12q-26 0 -38 -25t-14 -53h-123z" />
<glyph unicode="&#x2000;" horiz-adv-x="1007" />
<glyph unicode="&#x2001;" horiz-adv-x="2014" />
<glyph unicode="&#x2002;" horiz-adv-x="1007" />
<glyph unicode="&#x2003;" horiz-adv-x="2014" />
<glyph unicode="&#x2004;" horiz-adv-x="671" />
<glyph unicode="&#x2005;" horiz-adv-x="503" />
<glyph unicode="&#x2006;" horiz-adv-x="335" />
<glyph unicode="&#x2007;" horiz-adv-x="335" />
<glyph unicode="&#x2008;" horiz-adv-x="251" />
<glyph unicode="&#x2009;" horiz-adv-x="402" />
<glyph unicode="&#x200a;" horiz-adv-x="111" />
<glyph unicode="&#x2010;" horiz-adv-x="844" d="M96 558v160h652v-160h-652z" />
<glyph unicode="&#x2011;" horiz-adv-x="844" d="M96 558v160h652v-160h-652z" />
<glyph unicode="&#x2012;" horiz-adv-x="844" d="M96 558v160h652v-160h-652z" />
<glyph unicode="&#x2013;" horiz-adv-x="1024" d="M0 558v160h1024v-160h-1024z" />
<glyph unicode="&#x2014;" horiz-adv-x="2048" d="M0 558v160h2048v-160h-2048z" />
<glyph unicode="&#x2018;" horiz-adv-x="510" d="M112 928l154 562h132l-88 -562h-198z" />
<glyph unicode="&#x2019;" horiz-adv-x="510" d="M112 928l88 562h198l-154 -562h-132z" />
<glyph unicode="&#x201a;" horiz-adv-x="510" d="M112 -376l88 562h198l-154 -562h-132z" />
<glyph unicode="&#x201c;" horiz-adv-x="878" d="M112 928l154 562h132l-88 -562h-198zM480 928l154 562h132l-88 -562h-198z" />
<glyph unicode="&#x201d;" horiz-adv-x="878" d="M112 928l88 562h198l-154 -562h-132zM480 928l88 562h198l-154 -562h-132z" />
<glyph unicode="&#x201e;" horiz-adv-x="878" d="M112 -376l88 562h198l-154 -562h-132zM480 -376l88 562h198l-154 -562h-132z" />
<glyph unicode="&#x2022;" horiz-adv-x="960" d="M208 594q0 89 43 161.5t116 115.5t161 43q89 0 161.5 -43t115.5 -115.5t43 -161.5q0 -88 -43 -161t-115.5 -116t-161.5 -43q-88 0 -161 43t-116 116t-43 161z" />
<glyph unicode="&#x2026;" horiz-adv-x="1586" d="M112 119q0 54 38.5 92.5t92.5 38.5t92.5 -38.5t38.5 -92.5t-38.5 -92.5t-92.5 -38.5t-92.5 38.5t-38.5 92.5zM670 119q0 54 38.5 92.5t92.5 38.5t92.5 -38.5t38.5 -92.5t-38.5 -92.5t-92.5 -38.5t-92.5 38.5t-38.5 92.5zM1230 119q0 54 38.5 92.5t92.5 38.5t92.5 -38.5 t38.5 -92.5t-38.5 -92.5t-92.5 -38.5t-92.5 38.5t-38.5 92.5z" />
<glyph unicode="&#x202f;" horiz-adv-x="402" />
<glyph unicode="&#x2039;" horiz-adv-x="638" d="M88 596v14h166l280 -450h-152zM88 602v14l294 438h152l-280 -452h-166z" />
<glyph unicode="&#x203a;" horiz-adv-x="638" d="M88 160l280 450h166v-14l-294 -436h-152zM88 1054h152l294 -438v-14h-166z" />
<glyph unicode="&#x205f;" horiz-adv-x="503" />
<glyph unicode="&#x20ac;" horiz-adv-x="1266" d="M4 526l52 146h838l-66 -146h-824zM4 818l52 144h964l-68 -144h-948zM184 744q1 236 79 408t216 265t317 93q116 0 216.5 -40t179.5 -114l-70 -152q-47 43 -98.5 73.5t-108 47.5t-119.5 17q-124 0 -223 -69t-156 -202t-57 -327q0 -193 57 -326t156 -201.5t223 -68.5 q96 0 176 37t144 91l72 -150q-76 -73 -178.5 -109.5t-213.5 -36.5q-179 0 -317 93t-216 264.5t-79 406.5z" />
<glyph unicode="&#x2122;" horiz-adv-x="1150" d="M34 1408v82h418v-82h-418zM196 954v488h94v-488h-94zM546 954v536h92v-536h-92zM562 1490h96l166 -394l166 394h96l-236 -536h-50zM1010 954v536h94v-536h-94z" />
</font>
</defs>
</svg>
