<?xml version="1.0" standalone="no"?>
<!DOCTYPE svg PUBLIC "-//W3C//DTD SVG 1.1//EN" "http://www.w3.org/Graphics/SVG/1.1/DTD/svg11.dtd" >
<svg xmlns="http://www.w3.org/2000/svg" xmlns:xlink="http://www.w3.org/1999/xlink" version="1.1">
<metadata></metadata>
<defs>
<font id="league_spartanthin" horiz-adv-x="1001" >
<font-face units-per-em="2048" ascent="1638" descent="-410" />
<missing-glyph horiz-adv-x="483" />
<glyph unicode="&#xfb01;" horiz-adv-x="1039" d="M35 776v65h199v252q0 133 38 206.5t95.5 104t115.5 30.5q70 0 109 -20t44 -24l-32 -58q-6 5 -37 22t-90 17q-43 0 -84 -21t-68 -83.5t-27 -187.5v-238h265v-65h-265v-776h-64v776h-199zM745 1292q0 29 20 48.5t46 19.5q18 0 34.5 -9.5t26 -24t9.5 -34.5q0 -28 -20.5 -47 t-49.5 -19q-28 0 -47 19.5t-19 46.5zM778 0v841h65v-841h-65z" />
<glyph unicode="&#xfb02;" horiz-adv-x="1006" d="M35 776v65h199v252q0 133 38 206.5t95.5 104t115.5 30.5q70 0 109 -20t44 -24l-32 -58q-6 5 -37 22t-90 17q-43 0 -84 -21t-68 -83.5t-27 -187.5v-238h265v-65h-265v-776h-64v776h-199zM762 0v1409h68v-1409h-68z" />
<glyph horiz-adv-x="0" />
<glyph horiz-adv-x="682" />
<glyph unicode="&#xd;" horiz-adv-x="1228" />
<glyph unicode=" "  horiz-adv-x="483" />
<glyph unicode="&#x09;" horiz-adv-x="483" />
<glyph unicode="&#xa0;" horiz-adv-x="483" />
<glyph unicode="!" horiz-adv-x="645" d="M205 72q0 42 28 70t68 28q41 0 69 -28t28 -70q0 -40 -28 -68.5t-69 -28.5q-27 0 -49 13t-34.5 35t-12.5 49zM260 1409h86l-20 -1090h-47z" />
<glyph unicode="&#x22;" horiz-adv-x="723" d="M137 1232v5q0 31 16.5 55t51.5 24q36 0 51.5 -24.5t15.5 -54.5v-5q0 -12 -4.5 -44.5t-12 -75.5t-16 -89.5t-16.5 -86.5h-56q-5 40 -10 86.5t-10 89.5t-7.5 75.5t-2.5 44.5zM410 1232v5q0 31 15.5 55t51.5 24t51.5 -24t15.5 -55v-5q0 -12 -4.5 -44.5t-13 -75.5 t-16.5 -89.5t-16 -86.5h-55q-5 40 -10 86.5t-9.5 89.5t-7 75.5t-2.5 44.5z" />
<glyph unicode="#" horiz-adv-x="1243" d="M139 418l20 57h838l-19 -57h-839zM240 0l356 1352h56l-357 -1352h-55zM246 879l19 58h839l-20 -58h-838zM590 0l357 1352h55l-357 -1352h-55z" />
<glyph unicode="$" horiz-adv-x="1027" d="M69 101l46 61q13 -10 43 -30t76.5 -41t109 -35.5t139.5 -14.5q174 0 265 83.5t91 209.5q0 98 -58.5 167t-146 120.5t-177.5 94.5q-95 47 -172 96.5t-122 113.5t-45 152q0 85 49 152.5t135 106.5t195 39q110 0 185 -26t117 -54.5t48 -37.5l-41 -57q-15 14 -53 40.5 t-100.5 48t-152.5 21.5q-145 0 -228.5 -62.5t-83.5 -172.5q0 -74 43.5 -128.5t117 -98t161.5 -85.5q67 -32 136.5 -70t129.5 -88.5t96.5 -118t36.5 -157.5q0 -75 -30 -139.5t-87 -113t-136 -75.5t-178 -27q-111 0 -202 30t-146.5 61t-60.5 35zM495 22h60v-233h-60v233z M495 1338v233h60v-233h-60z" />
<glyph unicode="%" horiz-adv-x="1412" d="M106 1054q0 68 33 119.5t87.5 80.5t119.5 29q62 0 115.5 -29t87 -81t33.5 -119q0 -66 -31.5 -117.5t-84.5 -81.5t-120 -30q-71 0 -124.5 30t-84.5 81.5t-31 117.5zM167 1054q0 -82 48.5 -127t128.5 -45q74 0 125.5 44t51.5 128q0 80 -52 126.5t-125 46.5 q-76 0 -126.5 -46.5t-50.5 -126.5zM259 0l787 1352h66l-786 -1352h-67zM792 297q0 68 32 119.5t86.5 80.5t119.5 29q62 0 116 -29t87.5 -80.5t33.5 -119.5q0 -66 -31.5 -117.5t-85 -81t-120.5 -29.5q-70 0 -124 29.5t-84 81t-30 117.5zM852 297q0 -83 48.5 -127.5 t128.5 -44.5q74 0 125.5 44t51.5 128q0 80 -52 126.5t-125 46.5q-76 0 -126.5 -46.5t-50.5 -126.5z" />
<glyph unicode="&#x26;" horiz-adv-x="1325" d="M85 316q0 87 35 154.5t88.5 116t112 80.5t108 51t74.5 27q-14 14 -44.5 49.5t-63.5 85.5t-56 106.5t-23 113.5q0 80 43.5 142.5t116 98t158.5 35.5q92 0 160.5 -35.5t107 -98t38.5 -142.5q0 -98 -43 -167.5t-103 -113.5t-112.5 -67.5t-72.5 -30.5l371 -410 q24 29 60.5 84.5t67.5 120.5l47 -33q-9 -24 -33.5 -65t-53.5 -81.5t-49 -63.5l256 -273h-89l-208 226q-54 -58 -131.5 -116t-175 -96.5t-212.5 -38.5t-199 45t-129.5 122t-45.5 174zM145 316q0 -92 44 -155t115.5 -94.5t152.5 -31.5q102 0 196.5 37.5t169.5 91t119 103.5 l-398 431q-22 -5 -68.5 -21.5t-103 -45.5t-108 -73t-85.5 -104t-34 -138zM379 1100q0 -53 27.5 -110t64 -106.5t66 -82t33.5 -36.5q30 8 81 30t103.5 61.5t89 99.5t36.5 144q0 91 -70 152t-179 61q-80 0 -136.5 -32t-86 -81t-29.5 -100z" />
<glyph unicode="'" horiz-adv-x="434" d="M129 1237q0 31 16.5 55t51.5 24q36 0 51.5 -24.5t15.5 -54.5q0 -26 -14 -112t-35 -189h-56q-8 67 -15 129.5t-11 109.5t-4 62z" />
<glyph unicode="(" horiz-adv-x="586" d="M125 486q0 160 24.5 305t63.5 267.5t84.5 216t87.5 150.5l57 -44q-53 -70 -111 -200.5t-97.5 -308t-39.5 -386.5q0 -196 39 -363t96.5 -291t109.5 -190l-49 -49q-57 71 -118.5 202t-104 308t-42.5 383z" />
<glyph unicode=")" horiz-adv-x="586" d="M71 1381l57 44q42 -57 87.5 -150.5t84.5 -216t63.5 -267.5t24.5 -305q0 -207 -42.5 -383.5t-104 -307.5t-118.5 -202l-49 49q53 67 110 190.5t96 291t39 362.5q0 209 -39.5 386.5t-97.5 308.5t-111 200z" />
<glyph unicode="*" horiz-adv-x="873" d="M154 1180l20 60l209 -72l2 222h64l2 -222l207 72l22 -60l-213 -74l123 -183l-51 -35l-123 179l-132 -177l-52 34l135 182z" />
<glyph unicode="+" horiz-adv-x="1111" d="M115 649v62h390v389h62v-389h388v-62h-388v-390h-62v390h-390z" />
<glyph unicode="," horiz-adv-x="543" d="M139 69q0 34 14.5 59t39.5 38.5t58 13.5q50 0 85.5 -35.5t35.5 -87.5q0 -62 -24 -115t-63.5 -92.5t-85.5 -64.5l-55 48q28 12 59 34t56 51t31 63q-24 -11 -49 -12q-44 1 -73 33t-29 67z" />
<glyph unicode="-" horiz-adv-x="797" d="M115 436v62h527v-62h-527z" />
<glyph unicode="." horiz-adv-x="645" d="M205 72q0 42 28 70t68 28q41 0 69 -28t28 -70q0 -40 -28 -68.5t-69 -28.5q-40 0 -68 28.5t-28 68.5z" />
<glyph unicode="/" horiz-adv-x="944" d="M71 -197l674 1606h74l-675 -1606h-73z" />
<glyph unicode="0" horiz-adv-x="1169" d="M88 675q0 184 42 316.5t111.5 217.5t154 126t169.5 41q86 0 170.5 -41t153 -126t110 -217.5t41.5 -316.5q0 -180 -41.5 -312t-110 -218t-153 -128t-170.5 -42q-85 0 -169.5 42t-154 128t-111.5 218t-42 312zM158 675q0 -211 58 -352.5t151.5 -211.5t197.5 -70 q105 0 198 70t151 211.5t58 352.5q0 215 -58 355.5t-150.5 210.5t-198.5 70q-104 0 -197.5 -70t-151.5 -211t-58 -355z" />
<glyph unicode="1" horiz-adv-x="587" d="M69 1127v71l254 154h62v-1352h-66v1278z" />
<glyph unicode="2" horiz-adv-x="1071" d="M74 1086q2 5 19.5 36t52.5 73.5t89 84t127.5 69t167.5 27.5q84 0 153 -22t119 -68.5t77 -120.5t27 -179q0 -85 -45.5 -181t-118 -194t-157 -188t-164.5 -165t-139.5 -125t-79.5 -67h693v-66h-808v60q45 37 117 97.5t157 138.5t168.5 165.5t154 178.5t112.5 179t42 166 q0 181 -80.5 253.5t-227.5 72.5q-98 0 -171 -36t-122 -84t-73.5 -86.5t-26.5 -42.5z" />
<glyph unicode="3" horiz-adv-x="1024" d="M69 218l59 36q17 -46 61 -95t116 -83.5t170 -34.5q114 0 192.5 46t119 123t40.5 169q0 104 -50 169.5t-130.5 97t-171.5 31.5h-26v63h34q81 0 153 34t116.5 98t44.5 154q0 119 -78.5 202t-240.5 83q-85 0 -142 -23t-90.5 -54t-48.5 -55t-15 -26l-65 30q3 9 24.5 39.5 t64.5 66t111 61.5t164 26q130 0 214.5 -48t126 -127t41.5 -172q0 -87 -35.5 -156t-93 -111.5t-122.5 -50.5q65 -4 131 -44t110.5 -112.5t44.5 -175.5q0 -113 -52 -204.5t-146.5 -145.5t-222.5 -54q-117 0 -200.5 39t-135.5 95.5t-72 108.5z" />
<glyph unicode="4" horiz-adv-x="952" d="M54 285v62l591 1005h53v-1002h154v-65h-154v-285h-65v285h-579zM136 350h497v844z" />
<glyph unicode="5" horiz-adv-x="1061" d="M113 188l61 41q4 -10 23.5 -39.5t57.5 -64t97.5 -59.5t144.5 -25q170 0 267.5 109.5t95.5 291.5q-2 168 -88.5 257t-225.5 89q-87 0 -151.5 -31.5t-105.5 -77.5t-58 -89l-69 18l110 744h601v-66h-537l-82 -562q4 11 37.5 42.5t98 59.5t162.5 28q104 0 188 -46.5 t134.5 -138t51.5 -227.5q1 -134 -47 -239.5t-143.5 -166.5t-238.5 -61q-101 0 -172.5 28.5t-116.5 67.5t-67.5 72.5t-27.5 44.5z" />
<glyph unicode="6" horiz-adv-x="1105" d="M85 437q0 134 48.5 230.5t118.5 184.5l395 500h84l-469 -585q31 35 106 65.5t178 30.5q122 0 220 -58.5t156.5 -159t58.5 -227.5t-61.5 -227t-164.5 -158t-226 -58q-127 0 -227 59.5t-158.5 164t-58.5 238.5zM154 421q0 -105 51.5 -192t138.5 -138.5t192 -51.5t191 51.5 t137 138t51 192.5q0 105 -51 191t-137 137.5t-191 51.5t-192 -51.5t-138.5 -137.5t-51.5 -191z" />
<glyph unicode="7" horiz-adv-x="1020" d="M110 0l732 1286h-711v66h790v-60l-735 -1292h-76z" />
<glyph unicode="8" horiz-adv-x="1100" d="M125 366q0 105 37.5 177.5t98.5 118.5t130 67q-49 18 -96.5 57t-79.5 101.5t-32 150.5q0 98 45.5 174.5t124 120t176.5 43.5t176 -43.5t123 -119.5t45 -175q0 -132 -64 -205t-142 -104q70 -22 130.5 -67.5t98.5 -118t38 -177.5q0 -106 -49.5 -195t-140.5 -142.5 t-214 -53.5t-214 53.5t-141 142t-50 195.5zM195 367q0 -92 44.5 -166t120.5 -117t169 -43t168.5 43t120.5 116.5t45 166.5t-45 166.5t-120 116.5t-169 43q-93 0 -169 -43t-120.5 -116.5t-44.5 -166.5zM252 1035q0 -76 37.5 -138.5t100.5 -100t139 -37.5t138.5 37.5t100 100 t37.5 138.5t-37.5 138.5t-100 100t-138.5 37.5t-139 -37.5t-100.5 -100t-37.5 -138.5z" />
<glyph unicode="9" horiz-adv-x="1103" d="M105 934q0 127 62 227t164.5 157.5t225.5 57.5q127 0 227.5 -59.5t158.5 -163.5t58 -239q0 -134 -48.5 -230t-117.5 -184l-396 -500h-84l469 585q-31 -35 -105.5 -66t-177.5 -31q-121 0 -220 58.5t-157.5 159.5t-58.5 228zM171 931q0 -104 51 -191t138 -138t191 -51 q105 0 191.5 51t138.5 137.5t52 191.5t-52 191.5t-138.5 138.5t-191.5 52q-104 0 -191 -52t-138 -138.5t-51 -191.5z" />
<glyph unicode=":" horiz-adv-x="499" d="M150 72q0 42 28 70t68 28q41 0 69 -28t28 -70q0 -40 -28 -68.5t-69 -28.5q-40 0 -68 28.5t-28 68.5zM150 768q0 42 28 70t68 28q41 0 69 -28t28 -70q0 -40 -28 -68.5t-69 -28.5q-40 0 -68 28.5t-28 68.5z" />
<glyph unicode=";" horiz-adv-x="522" d="M126 69q0 34 14.5 59t39.5 38.5t58 13.5q50 0 85.5 -35.5t35.5 -87.5q0 -62 -24 -115t-63.5 -92.5t-85.5 -64.5l-55 48q28 12 59 34t56 51t31 63q-24 -11 -49 -12q-44 1 -73 33t-29 67zM134 770q0 42 28 70t68 28q41 0 69 -28t28 -70q0 -40 -28 -68.5t-69 -28.5 q-40 0 -68 28.5t-28 68.5z" />
<glyph unicode="&#x3c;" horiz-adv-x="1092" d="M97 642v79l814 401v-70l-764 -370l764 -371v-68z" />
<glyph unicode="=" horiz-adv-x="1029" d="M125 494v61h738v-61h-738zM125 808v62h738v-62h-738z" />
<glyph unicode="&#x3e;" horiz-adv-x="1092" d="M115 243v68l764 371l-764 370v70l814 -401v-79z" />
<glyph unicode="?" horiz-adv-x="912" d="M68 1145q3 18 20 47t48 60.5t75 59.5t101 46t125 18q115 0 196 -37t124 -103t43 -153q0 -83 -37 -148.5t-99 -119.5t-138 -105q-40 -26 -50.5 -51t-10.5 -82v-258h-66v298q0 57 24 84t71 56q51 33 106.5 79t94.5 108t39 139q0 114 -83 171t-215 57q-89 0 -154.5 -34 t-104.5 -80t-49 -83zM336 72q0 42 28 70t68 28t67.5 -28t27.5 -70q0 -40 -27.5 -68.5t-67.5 -28.5t-68 28.5t-28 68.5z" />
<glyph unicode="@" horiz-adv-x="1583" d="M54 677q0 156 59.5 284.5t163.5 221.5t238 143t285 50q143 0 268 -47t219.5 -133.5t148 -206.5t53.5 -265q0 -117 -45 -199.5t-113 -126t-138 -43.5q-93 0 -129.5 43.5t-36.5 109.5q-4 -41 -42 -82.5t-100.5 -69.5t-141.5 -28q-110 0 -187.5 46t-119 122.5t-41.5 169.5 q0 92 41.5 167.5t119.5 120.5t187 45q84 0 144 -30t94 -64.5t37 -47.5v118h65v-445q0 -15 8 -43.5t31 -52.5t69 -24q44 0 98 32t94 101.5t40 180.5q0 124 -47 231t-131.5 188t-198 126t-246.5 45q-130 0 -252 -46.5t-218.5 -132t-153 -202.5t-56.5 -256q0 -138 53.5 -255 t146 -203t210 -133.5t245.5 -47.5q114 0 205.5 32t156 79t95.5 89l56 -44q-36 -46 -109 -97t-175.5 -86.5t-228.5 -35.5q-151 0 -281 51t-229 144t-155 221.5t-56 285.5zM461 666q0 -116 76 -197t206 -81q132 0 204 85t72 201q0 79 -37 138t-99.5 93t-139.5 34 q-123 0 -202.5 -78t-79.5 -195z" />
<glyph unicode="A" horiz-adv-x="1112" d="M47 0l474 1352h79l471 -1352h-69l-132 371h-619l-134 -371h-70zM268 436h586l-292 831h-3z" />
<glyph unicode="B" horiz-adv-x="1045" d="M129 0v1352h302q106 0 202 -28t156 -97.5t60 -197.5q0 -90 -36 -163.5t-85 -119t-89 -48.5q30 -1 76.5 -21t93.5 -59t79.5 -99t32.5 -142q0 -109 -40.5 -194.5t-127 -134t-227.5 -48.5h-397zM191 63h364q124 0 189 46.5t89 117t24 142.5q0 121 -82 205t-240 84h-344v-595 zM191 721h314q97 0 158.5 47t91 116.5t29.5 136.5q0 146 -87.5 206.5t-232.5 60.5h-273v-567z" />
<glyph unicode="C" horiz-adv-x="1271" d="M60 674q0 145 51 272.5t143.5 224t218.5 151t276 54.5q160 0 272 -42t156 -83l-30 -57q-41 39 -146 79.5t-259 40.5q-123 0 -233 -45t-196 -129t-135 -201.5t-49 -261.5q0 -145 49 -263t135 -202t196 -129t233 -45q154 0 259 41t146 79l30 -58q-44 -41 -156.5 -83 t-271.5 -42q-150 0 -275.5 54.5t-218 150t-144 222t-51.5 272.5z" />
<glyph unicode="D" horiz-adv-x="1114" d="M126 0v1352h245q216 0 353 -86.5t202 -239.5t65 -349q0 -198 -64.5 -350.5t-201.5 -239.5t-354 -87h-245zM188 66h179q197 0 319.5 77.5t180.5 215t59 316.5v6q0 175 -56 311q-58 138 -182 216t-321 78h-179v-1220z" />
<glyph unicode="E" horiz-adv-x="1059" d="M137 0v1352h746v-66h-683v-575h663v-66h-663v-579h683v-66h-746z" />
<glyph unicode="F" horiz-adv-x="887" d="M129 0v1352h639v-66h-577v-575h541v-66h-541v-645h-62z" />
<glyph unicode="G" horiz-adv-x="1444" d="M49 677q0 141 49 267.5t138 224t208 152.5t258 55q77 0 148.5 -17.5t135.5 -50.5t118.5 -79t97.5 -104l-47 -41q-78 103 -194.5 165t-258.5 62q-127 0 -234.5 -50.5t-186.5 -138t-122.5 -202t-43.5 -243.5t43.5 -244t122.5 -203.5t186.5 -138.5t234.5 -50q125 0 230 48 t183.5 132.5t123.5 195t49 235.5h-611v64h677v-64q0 -138 -50.5 -260.5t-139 -216t-206.5 -147t-256 -53.5q-139 0 -258 56t-208 153.5t-138 224t-49 268.5z" />
<glyph unicode="H" horiz-adv-x="1240" d="M137 0v1352h63v-641h801v641h62v-1352h-62v645h-801v-645h-63z" />
<glyph unicode="I" horiz-adv-x="414" d="M156 0v1352h65v-1352h-65z" />
<glyph unicode="J" horiz-adv-x="759" d="M-6 121l44 53q10 -19 36.5 -51.5t80.5 -58t142 -25.5q105 0 163.5 50t81.5 131.5t23 174.5v957h64v-945q0 -132 -33.5 -229t-106.5 -150t-192 -53q-100 0 -164 29t-97.5 64t-41.5 53z" />
<glyph unicode="K" horiz-adv-x="911" d="M154 0v1352h65v-675l546 675h79l-552 -682l585 -670h-80l-578 652v-652h-65z" />
<glyph unicode="L" horiz-adv-x="884" d="M129 0v1352h65v-1286h566v-66h-631z" />
<glyph unicode="M" horiz-adv-x="1364" d="M129 0v1352h66l450 -1196l8 -36l9 36l452 1196h64v-1352h-64v1127l5 85l-23 -85l-410 -1078h-65l-410 1078l-23 85l6 -85v-1127h-65z" />
<glyph unicode="N" horiz-adv-x="1310" d="M137 0v1352h104l830 -1283h-1v1283h64v-1352h-104l-830 1283h2v-1283h-65z" />
<glyph unicode="O" horiz-adv-x="1444" d="M49 677q0 147 49 274.5t138 223t208 148.5t258 53q140 0 258.5 -53t207 -148.5t137.5 -223t49 -274.5q0 -148 -49 -276t-137.5 -223.5t-206.5 -149t-259 -53.5q-139 0 -258 53.5t-208 149t-138 223.5t-49 276zM115 677q0 -180 76 -324t208.5 -228t302.5 -84 q171 0 303.5 84t207.5 228t75 324t-75 323.5t-207.5 227t-303.5 83.5q-170 0 -302.5 -83.5t-208.5 -227t-76 -323.5z" />
<glyph unicode="P" d="M154 0v1352h290q124 0 224 -38t159.5 -122.5t59.5 -226.5q0 -141 -59.5 -230t-159.5 -130.5t-224 -41.5h-226v-563h-64zM218 629h210q108 0 197 31.5t142.5 105.5t53.5 199q0 126 -53.5 195.5t-142.5 97.5t-197 28h-210v-657z" />
<glyph unicode="Q" horiz-adv-x="1412" d="M49 677q0 147 49 274.5t138 223t208 148.5t258 53q140 0 258.5 -53t207 -148.5t137.5 -223t49 -274.5q0 -148 -49 -276t-137.5 -223.5t-206.5 -149t-259 -53.5q-139 0 -258 53.5t-208 149t-138 223.5t-49 276zM115 677q0 -180 76 -324t208.5 -228t302.5 -84 q171 0 303.5 84t207.5 228t75 324t-75 323.5t-207.5 227t-303.5 83.5q-170 0 -302.5 -83.5t-208.5 -227t-76 -323.5zM407 -112q68 51 131 81.5t153 30.5q76 0 138 -23l124 -46t137 -23q59 0 100.5 13t64.5 27t25 17l47 -60q-20 -13 -78 -39.5t-165 -26.5q-68 0 -117 14.5 t-91.5 33.5t-87 33t-100.5 14q-62 0 -113 -24.5t-82 -49.5t-34 -29z" />
<glyph unicode="R" horiz-adv-x="1071" d="M141 0v1352h406q102 0 189.5 -42.5t141.5 -126t54 -206.5t-53.5 -206t-128 -125t-139.5 -42l341 -604h-75l-331 600h-341v-600h-64zM205 662h321q154 0 247 77.5t93 237.5t-93 234.5t-247 74.5h-321v-624z" />
<glyph unicode="S" horiz-adv-x="1027" d="M69 101l46 61q13 -10 43 -30t76.5 -41t109 -35.5t139.5 -14.5q174 0 265 83.5t91 209.5q0 98 -58.5 167t-146 120.5t-177.5 94.5q-95 47 -172 96.5t-122 113.5t-45 152q0 85 49 152.5t135 106.5t195 39q110 0 185 -26t117 -54.5t48 -37.5l-41 -57q-15 14 -53 40.5 t-100.5 48t-152.5 21.5q-145 0 -228.5 -62.5t-83.5 -172.5q0 -74 43.5 -128.5t117 -98t161.5 -85.5q67 -32 136.5 -70t129.5 -88.5t96.5 -118t36.5 -157.5q0 -75 -30 -139.5t-87 -113t-136 -75.5t-178 -27q-111 0 -202 30t-146.5 61t-60.5 35z" />
<glyph unicode="T" horiz-adv-x="985" d="M38 1286v66h868v-66h-401v-1286h-66v1286h-401z" />
<glyph unicode="U" horiz-adv-x="1247" d="M115 505v847h63v-844q0 -140 58.5 -245t156 -163.5t215.5 -58.5t215 58.5t154.5 163.5t57.5 245v844h65v-847q0 -167 -67.5 -286t-179.5 -181.5t-245 -62.5t-245.5 62.5t-180 181.5t-67.5 286z" />
<glyph unicode="V" horiz-adv-x="1193" d="M27 1352h71l479 -1290l480 1290h71l-507 -1352h-89z" />
<glyph unicode="W" horiz-adv-x="1528" d="M46 1352h71l241 -1272h-1l326 1272h98l327 -1272h-2l243 1272h70l-264 -1352h-95l-336 1321h16l-336 -1321h-95z" />
<glyph unicode="X" horiz-adv-x="1122" d="M10 0l485 727l-436 625h78l407 -574l401 574h79l-431 -625l480 -727h-79l-450 677l-456 -677h-78z" />
<glyph unicode="Y" horiz-adv-x="1050" d="M28 1352h75l402 -785l399 785h76l-442 -866v-486h-66v486z" />
<glyph unicode="Z" horiz-adv-x="1133" d="M66 0l841 1286h-746v66h866l-836 -1286h792v-66h-917z" />
<glyph unicode="[" horiz-adv-x="666" d="M131 -426v1835h364v-66h-298v-1703h298v-66h-364z" />
<glyph unicode="\" horiz-adv-x="944" d="M82 1409h76l675 -1409h-76z" />
<glyph unicode="]" horiz-adv-x="666" d="M98 -360h298v1703h-298v66h364v-1835h-364v66z" />
<glyph unicode="^" horiz-adv-x="886" d="M71 991l319 385h69l317 -385h-78l-274 342l-273 -342h-80z" />
<glyph unicode="_" horiz-adv-x="816" d="M28 -66h753v-63h-753v63z" />
<glyph unicode="`" horiz-adv-x="709" d="M174 1231l60 77l295 -232l-40 -50z" />
<glyph unicode="a" horiz-adv-x="1032" d="M59 420q0 143 59.5 242.5t156.5 151t208 51.5q101 0 175.5 -39.5t117 -89.5t45.5 -83v188h64v-841h-64v186q-6 -29 -47.5 -79.5t-115 -91t-175.5 -40.5q-112 0 -208.5 51.5t-156 150.5t-59.5 243zM125 420q0 -119 51 -204t132 -130t169 -45q97 0 174 46t121.5 131 t44.5 202t-44.5 202t-121.5 131.5t-174 46.5q-88 0 -169 -45.5t-132 -130.5t-51 -204z" />
<glyph unicode="b" horiz-adv-x="1012" d="M123 0v1409h68v-756q4 35 49 85t122.5 88.5t180.5 38.5q113 0 205 -51.5t147 -151t55 -242.5t-55 -242.5t-147.5 -151t-204.5 -51.5q-103 0 -182 40t-124.5 90.5t-48.5 80.5v-186h-65zM191 420q0 -117 49 -202t130.5 -131t178.5 -46q88 0 163.5 45t123 130t47.5 204 t-47.5 204t-123 130.5t-163.5 45.5q-97 0 -178.5 -46.5t-130.5 -131.5t-49 -202z" />
<glyph unicode="c" horiz-adv-x="830" d="M71 421q0 151 61 249t151.5 146.5t180.5 48.5q76 0 132.5 -19.5t92 -42t43.5 -31.5l-39 -57q-9 9 -36 29.5t-73 38t-112 17.5q-79 0 -156.5 -43.5t-128.5 -128t-51 -207.5t51 -208t128.5 -128.5t156.5 -43.5q98 0 156.5 30t70.5 41l40 -58q-6 -5 -43 -24.5t-96.5 -37 t-135.5 -17.5q-90 0 -180.5 49t-151.5 148t-61 249z" />
<glyph unicode="d" horiz-adv-x="1012" d="M98 420q0 143 55.5 242.5t148 151t204.5 51.5q102 0 180 -38.5t123 -88.5t48 -85v756h69v-1409h-66v186q-3 -31 -48 -81t-124 -90t-182 -40q-112 0 -204.5 51.5t-148 150.5t-55.5 243zM166 420q0 -119 47 -204t123.5 -130t163.5 -45q97 0 178.5 46t130 131t48.5 202 t-48.5 202t-130 131.5t-178.5 46.5q-87 0 -163.5 -45.5t-123.5 -130.5t-47 -204z" />
<glyph unicode="e" horiz-adv-x="941" d="M59 431q0 123 48 221.5t138.5 155.5t218.5 57q114 0 198 -52.5t131.5 -143.5t47.5 -208q0 -9 -1 -18t-1 -17h-710q0 -99 37 -187.5t112.5 -144t191.5 -55.5q93 0 153 31.5t94.5 74t47.5 74.5l60 -41q-41 -67 -91 -112.5t-115 -68t-152 -22.5q-132 0 -223 62t-138 166 t-47 228zM134 492h634q-2 67 -30 138t-93.5 121t-180.5 50q-121 0 -191 -48t-101.5 -120t-37.5 -141z" />
<glyph unicode="f" horiz-adv-x="624" d="M35 776v65h199v252q0 133 38 206.5t95.5 104t115.5 30.5q70 0 109 -20t44 -24l-32 -58q-6 5 -37 22t-90 17q-43 0 -84 -21t-68 -83.5t-27 -187.5v-238h265v-65h-265v-776h-64v776h-199z" />
<glyph unicode="g" horiz-adv-x="1042" d="M59 420q0 143 59.5 242.5t156.5 151t208 51.5q101 0 175.5 -39.5t117 -89.5t45.5 -83v188h64v-841h-64v186q-6 -29 -47.5 -79.5t-115 -91t-175.5 -40.5q-112 0 -208.5 51.5t-156 150.5t-59.5 243zM117 -287l61 46q16 -26 48.5 -59t95.5 -57.5t172 -24.5t181.5 50.5 t109 133.5t36.5 180v32h64v-39q0 -137 -53 -231.5t-141 -143.5t-197 -49t-184.5 25t-122.5 62t-70 75zM125 420q0 -119 51 -204t132 -130t169 -45q97 0 174 46t121.5 131t44.5 202t-44.5 202t-121.5 131.5t-174 46.5q-88 0 -169 -45.5t-132 -130.5t-51 -204z" />
<glyph unicode="h" horiz-adv-x="993" d="M139 0v1409h69v-740q6 37 47.5 83t108 79.5t146.5 33.5q77 0 150.5 -33.5t121 -107t47.5 -189.5v-535h-67v513q0 155 -72 221t-182 66q-74 0 -142.5 -43t-113 -117t-44.5 -165v-475h-69z" />
<glyph unicode="i" horiz-adv-x="414" d="M120 1292q0 29 20 48.5t46 19.5q18 0 34.5 -9.5t26 -24t9.5 -34.5q0 -28 -20.5 -47t-49.5 -19q-28 0 -47 19.5t-19 46.5zM153 0v841h65v-841h-65z" />
<glyph unicode="j" horiz-adv-x="437" d="M-80 -413l41 56q11 -10 29 -19t61 -9q60 0 89 37.5t37.5 104t8.5 153.5v931h66v-970q0 -100 -17.5 -172.5t-61 -111t-121.5 -38.5q-49 0 -84 13t-48 25zM159 1292q0 18 9 33.5t24.5 25t33.5 9.5q19 0 34 -9.5t24 -24.5t9 -34q0 -28 -19 -47t-48 -19t-48 19.5t-19 46.5z " />
<glyph unicode="k" horiz-adv-x="740" d="M98 0v1409h66v-936l426 368h98l-465 -401l485 -440h-99l-445 401v-401h-66z" />
<glyph unicode="l" horiz-adv-x="381" d="M137 0v1409h68v-1409h-68z" />
<glyph unicode="m" horiz-adv-x="1458" d="M142 0v841h66v-136q10 32 44.5 69t91 64t131.5 27q78 0 129.5 -38.5t79.5 -89.5t32 -90q15 51 54.5 101.5t100.5 83.5t139 33q92 0 153 -41.5t91 -125.5t30 -213v-485h-65v459q0 178 -48 258.5t-166 80.5q-58 0 -118.5 -33.5t-101 -107.5t-40.5 -198v-459h-65v459 q0 178 -62 258.5t-157 80.5q-59 0 -117.5 -32t-97 -106t-38.5 -201v-459h-66z" />
<glyph unicode="n" horiz-adv-x="976" d="M137 0v841h66v-172q6 37 48 83t108.5 79.5t145.5 33.5q77 0 150.5 -33.5t121 -107t47.5 -189.5v-535h-67v513q0 155 -72 221t-182 66q-74 0 -142.5 -43t-113 -117t-44.5 -165v-475h-66z" />
<glyph unicode="o" d="M59 418q0 123 54.5 224.5t149.5 162t218 60.5t218 -60.5t148.5 -162t53.5 -224.5t-53.5 -223.5t-148.5 -160t-218 -59.5t-218 59.5t-149.5 160t-54.5 223.5zM125 418q0 -106 44.5 -192t125 -135.5t186.5 -49.5t186.5 49.5t124.5 135t44 192.5q0 106 -44 192.5t-124 138 t-187 51.5q-106 0 -186.5 -51.5t-125 -138t-44.5 -192.5z" />
<glyph unicode="p" horiz-adv-x="1045" d="M133 -426v1267h70v-188q4 35 48 85t121.5 88.5t179.5 38.5q113 0 205.5 -51.5t148.5 -151t56 -242.5t-56 -242.5t-148.5 -151t-205.5 -51.5q-102 0 -180.5 40t-123 90.5t-48.5 80.5v-612h-67zM203 420q0 -117 48 -202t129.5 -131t178.5 -46q88 0 164.5 45t124 130 t47.5 204t-47.5 204t-124 130.5t-164.5 45.5q-97 0 -178.5 -46.5t-129.5 -131.5t-48 -202z" />
<glyph unicode="q" horiz-adv-x="1045" d="M84 420q0 143 56 242.5t149 151t205 51.5q102 0 179.5 -38.5t122 -88.5t47.5 -85v188h69v-1267h-66v612q-3 -31 -48 -81t-123 -90t-181 -40q-112 0 -205 51.5t-149 150.5t-56 243zM151 420q0 -119 47.5 -204t124 -130t163.5 -45q98 0 179 46t129.5 131t48.5 202 t-48.5 202t-129 131.5t-179.5 46.5q-87 0 -163.5 -45.5t-124 -130.5t-47.5 -204z" />
<glyph unicode="r" horiz-adv-x="635" d="M144 0v841h64v-158h-5q3 28 36 71t91 77t134 34q59 0 100 -14t56 -29l-32 -58q-14 11 -50 23.5t-87 12.5q-72 0 -127 -51.5t-85.5 -122t-30.5 -128.5v-498h-64z" />
<glyph unicode="s" horiz-adv-x="776" d="M68 68l47 60q27 -29 88 -58t146 -29q103 0 172 50.5t69 131.5q0 60 -33 96t-85 57t-110 36q-55 14 -102.5 33.5t-83.5 47.5t-56 67t-20 90q0 63 39 111.5t104.5 76t144.5 27.5q52 0 99.5 -12.5t84 -31.5t57.5 -37l-44 -53q-23 22 -76 45.5t-121 23.5q-90 0 -154 -39 t-64 -112q0 -71 64 -112t165 -68q76 -19 135 -47.5t92.5 -75t33.5 -123.5q0 -61 -24.5 -107.5t-68 -77.5t-100.5 -47t-123 -16q-62 0 -117 15t-96 36.5t-63 41.5z" />
<glyph unicode="t" horiz-adv-x="622" d="M54 775v66h184v345h65v-345h240v-66h-240v-568q0 -93 35 -129.5t82 -36.5q48 0 71.5 16.5t27.5 21.5l40 -54q-5 -5 -22.5 -17.5t-46.5 -22.5t-72 -10q-75 0 -127.5 51t-52.5 164v585h-184z" />
<glyph unicode="u" horiz-adv-x="985" d="M120 371v470h65v-453q0 -160 72.5 -253.5t214.5 -93.5t214.5 93.5t72.5 253.5v453h65v-470q0 -113 -41 -202.5t-119 -141.5t-192 -52q-113 0 -191.5 52t-119.5 141.5t-41 202.5z" />
<glyph unicode="v" horiz-adv-x="925" d="M36 841h70l336 -775l334 775h71l-366 -841h-78z" />
<glyph unicode="w" horiz-adv-x="1240" d="M87 841h71l167 -764l226 747h98l225 -747l169 764h71l-186 -841h-99l-229 751l-228 -751h-99z" />
<glyph unicode="x" horiz-adv-x="964" d="M49 0l369 439l-331 402h85l290 -356l292 356h85l-333 -402l371 -439h-85l-330 398l-328 -398h-85z" />
<glyph unicode="y" horiz-adv-x="855" d="M31 841h72l309 -769l330 769h72l-558 -1267h-71l189 426z" />
<glyph unicode="z" horiz-adv-x="813" d="M36 0l573 775h-524v66h649l-573 -775h562v-66h-687z" />
<glyph unicode="{" horiz-adv-x="690" d="M129 459v67q84 0 110 46t26 103v519q0 70 15 118t54 72.5t110 24.5h77v-66h-77q-58 0 -84.5 -26t-26.5 -85v-565q0 -69 -31.5 -120t-88.5 -58q57 -7 88.5 -56t31.5 -117v-565q0 -45 20 -78t91 -33h77v-66h-77q-72 0 -110.5 24.5t-53.5 72.5t-15 118v519q0 56 -26 103.5 t-110 47.5z" />
<glyph unicode="|" horiz-adv-x="357" d="M126 -248v1690h62v-1690h-62z" />
<glyph unicode="}" horiz-adv-x="804" d="M226 -360h77q72 0 92 33t20 78v565q0 68 31 117t89 56q-57 6 -88.5 57.5t-31.5 120.5v565q0 59 -27 85t-85 26h-77v66h77q73 0 111.5 -24.5t53 -72.5t14.5 -118v-519q0 -56 26.5 -102.5t109.5 -46.5v-67q-84 0 -110 -47t-26 -104v-519q0 -70 -14.5 -118t-53 -72.5 t-111.5 -24.5h-77v66z" />
<glyph unicode="~" horiz-adv-x="1210" d="M115 608q20 43 59.5 89t94.5 78.5t121 32.5q68 0 118 -28.5t92 -65.5t85.5 -65.5t97.5 -28.5q50 0 90 25.5t69.5 63t43.5 72.5l69 -27q-20 -42 -60 -89t-94 -79t-121 -32q-66 0 -115.5 28.5t-91.5 65.5t-85.5 65.5t-97.5 28.5q-49 0 -89 -26t-68 -64t-43 -73z" />
<glyph unicode="&#xa1;" horiz-adv-x="645" d="M221 1282q0 27 13 49t35 34.5t48 12.5q41 0 69.5 -28t28.5 -68q0 -42 -28.5 -70t-69.5 -28q-40 0 -68 28t-28 70zM276 -55l19 1089h47l20 -1089h-86z" />
<glyph unicode="&#xa2;" horiz-adv-x="830" d="M71 421q0 151 61 249t151.5 146.5t180.5 48.5q76 0 132.5 -19.5t92 -42t43.5 -31.5l-39 -57q-9 9 -36 29.5t-73 38t-112 17.5q-79 0 -156.5 -43.5t-128.5 -128t-51 -207.5t51 -208t128.5 -128.5t156.5 -43.5q98 0 156.5 30t70.5 41l40 -58q-6 -5 -43 -24.5t-96.5 -37 t-135.5 -17.5q-90 0 -180.5 49t-151.5 148t-61 249zM437 22h61v-233h-61v233zM437 809v233h61v-233h-61z" />
<glyph unicode="&#xa3;" horiz-adv-x="1218" d="M117 0q5 46 41.5 96t90 85t108.5 35q4 11 14.5 51t10.5 91q0 60 -14.5 113.5t-45.5 121.5q-4 7 -20.5 48t-36.5 101.5t-35 127.5t-15 126q0 101 41 188.5t129.5 140.5t231.5 53q111 0 194 -40.5t138 -98t77 -111.5l-57 -33q-18 47 -65 97t-118.5 85.5t-168.5 35.5 q-156 0 -246 -81.5t-90 -237.5q0 -49 13.5 -111.5t33 -123t37.5 -106t25 -60.5q31 -82 43 -130.5t12 -104.5q0 -52 -11 -94.5t-14 -53.5q54 -6 103 -32t98.5 -58t101 -55.5t110.5 -23.5q62 0 103.5 26t64.5 63.5t28 72.5l61 -26q-13 -43 -47 -90t-87 -79.5t-126 -32.5 q-76 0 -133 28t-106 64t-100 64t-114 28q-57 0 -100 -31t-66.5 -68t-25.5 -60h-68zM117 559v64h719v-64h-719z" />
<glyph unicode="&#xa4;" horiz-adv-x="960" d="M13 162l164 166l44 -44l-166 -164zM13 1006l42 43l166 -164l-44 -44zM59 582q0 123 54.5 224.5t149.5 162t218 60.5t218 -60.5t148.5 -162t53.5 -224.5t-53.5 -223.5t-148.5 -160t-218 -59.5t-218 59.5t-149.5 160t-54.5 223.5zM125 582q0 -106 44.5 -192t125 -135.5 t186.5 -49.5t186.5 49.5t124.5 135t44 192.5q0 106 -44 192.5t-124 138t-187 51.5q-106 0 -186.5 -51.5t-125 -138t-44.5 -192.5zM734 284l44 44l164 -166l-43 -42zM734 885l165 164l43 -43l-164 -165z" />
<glyph unicode="&#xa5;" horiz-adv-x="1050" d="M28 1352h75l402 -785l399 785h76l-442 -866v-486h-66v486zM76 314v65h858v-65h-858zM76 526v64h858v-64h-858z" />
<glyph unicode="&#xa6;" horiz-adv-x="357" d="M134 0v544h46v-544h-46zM134 865v544h46v-544h-46z" />
<glyph unicode="&#xa7;" horiz-adv-x="1122" d="M117 -211l60 29q13 -44 51.5 -92t103.5 -81t156 -33q126 0 198 37.5t101.5 99.5t29.5 134q0 90 -46 150t-124 102.5t-172 79.5q-158 61 -240 130.5t-82 180.5q0 77 43 132.5t98 88.5t93 43q-50 36 -95 75t-73.5 93.5t-28.5 133.5q0 75 40.5 139t121 104.5t199.5 40.5 q98 0 168.5 -35.5t113.5 -87.5t57 -100l-49 -36q-13 43 -49.5 89t-95.5 78t-142 32q-133 0 -216.5 -60.5t-83.5 -154.5q0 -91 48 -153t120.5 -102.5t142.5 -69.5q101 -41 182 -84.5t129 -103.5t48 -151q0 -72 -32 -125.5t-78.5 -89.5t-90.5 -56q77 -44 119.5 -116.5 t42.5 -158.5q0 -52 -18 -111.5t-61.5 -111.5t-121 -85.5t-196.5 -33.5q-103 0 -180 38.5t-125 94.5t-66 107zM218 522q0 -83 72 -139.5t169 -95.5q79 -32 131 -54t80 -33q29 9 73.5 39.5t80.5 81.5t36 121q0 62 -43 112.5t-113 90.5t-153 73q-19 7 -42 15.5t-39 15.5t-19 8 q-51 -14 -105.5 -44t-91 -76.5t-36.5 -114.5z" />
<glyph unicode="&#xa8;" horiz-adv-x="993" d="M207 1145q0 30 22 53t53 23q30 0 52.5 -22.5t22.5 -53.5t-22.5 -53t-52.5 -22q-31 0 -53 23t-22 52zM595 1145q0 30 22 53t53 23q30 0 52.5 -22.5t22.5 -53.5t-22.5 -53t-52.5 -22q-31 0 -53 23t-22 52z" />
<glyph unicode="&#xa9;" horiz-adv-x="1550" d="M54 675q0 145 54.5 272t151 223.5t223 151t271.5 54.5t272 -54.5t223.5 -151t151 -223.5t54.5 -272q0 -144 -54.5 -270.5t-151 -223.5t-223.5 -151.5t-272 -54.5q-144 0 -271 54.5t-223.5 151.5t-151 223.5t-54.5 270.5zM109 675q0 -132 50 -249t139 -206t206 -139.5 t250 -50.5t250 50.5t206 139.5t140 206t51 249q0 133 -51 250t-140 206.5t-206 140t-250 50.5t-250 -50.5t-206 -140t-139 -206.5t-50 -250zM467 660q0 -78 37.5 -141t103.5 -101t151 -38q38 0 72.5 7.5t63.5 19.5t45 22l-25 49q-16 -13 -58 -27.5t-97 -14.5 q-99 0 -166.5 58.5t-67.5 169.5q0 109 66 169t165 60q57 0 98.5 -17.5t58.5 -33.5l26 53q-2 3 -48.5 27.5t-132.5 24.5q-85 0 -151 -37.5t-103.5 -102.5t-37.5 -147z" />
<glyph unicode="&#xaa;" horiz-adv-x="837" d="M141 1101q0 90 37 151t97 92.5t129 31.5q82 0 131 -35t50 -58v79l72 -2v-519h-70v80h-2q0 -12 -22 -35.5t-62 -42.5t-97 -19q-70 0 -129.5 32t-96.5 93.5t-37 151.5zM207 1101q0 -98 57.5 -152t125.5 -54q82 0 140 59t58 147q0 90 -59 147.5t-139 57.5q-70 0 -126.5 -54 t-56.5 -151z" />
<glyph unicode="&#xab;" horiz-adv-x="950" d="M88 456l286 360l39 -30l-266 -330l266 -330l-39 -33zM462 456l283 360l41 -30l-265 -330l265 -330l-41 -33z" />
<glyph unicode="&#xac;" horiz-adv-x="797" d="M115 436v62h527v-295h-62v233h-465z" />
<glyph unicode="&#xad;" horiz-adv-x="797" d="M115 436v62h527v-62h-527z" />
<glyph unicode="&#xae;" horiz-adv-x="882" d="M54 1008q0 101 50 184.5t132.5 133.5t183.5 50q102 0 185.5 -50t133 -133.5t49.5 -184.5q0 -100 -49.5 -184t-133 -133t-185.5 -49q-100 0 -183 49t-133 133t-50 184zM109 1008q0 -87 42 -158t113 -112.5t156 -41.5q88 0 159 41.5t113 112.5t42 158t-42 158t-113 113.5 t-159 42.5q-85 0 -156 -42.5t-113 -113.5t-42 -158zM326 841v339h102q48 0 79.5 -26t31.5 -75q0 -39 -17.5 -63t-48.5 -35l79 -140h-55l-71 134h-49v-134h-51zM377 1016h43q32 0 50 14t18 49q0 36 -22.5 45t-52.5 9h-36v-117z" />
<glyph unicode="&#xaf;" horiz-adv-x="971" d="M194 1104v65h545v-65h-545z" />
<glyph unicode="&#xb0;" horiz-adv-x="591" d="M142 1265q0 57 39 92.5t94 35.5t94 -35.5t39 -92.5q0 -56 -37.5 -92t-95.5 -36q-59 0 -96 36t-37 92zM188 1265q0 -35 25 -60t62 -25t63 25t26 60q0 36 -26 60t-63 24q-36 0 -61.5 -24t-25.5 -60z" />
<glyph unicode="&#xb1;" horiz-adv-x="1111" d="M115 788v62h390v389h62v-389h388v-62h-388v-390h-62v390h-390zM122 153v62h826v-62h-826z" />
<glyph unicode="&#xb2;" horiz-adv-x="473" d="M83 1264q1 2 7.5 13.5t20.5 28.5t35 33t49.5 26.5t65.5 10.5q32 0 59 -8t46.5 -26.5t30.5 -47t11 -69.5q0 -34 -18 -71.5t-46.5 -75.5t-61.5 -73t-64 -64t-54 -49t-31 -26h269v-25h-314v23q17 14 45.5 38t61.5 54t65.5 64.5t59.5 69.5t43.5 69.5t16.5 65.5q0 70 -31 98 t-88 28q-39 0 -67.5 -14t-47 -33t-28 -34t-10.5 -16z" />
<glyph unicode="&#xb3;" horiz-adv-x="436" d="M49 922l24 14q6 -18 23.5 -37.5t46 -33t67.5 -13.5q45 0 76 18.5t47 48.5t16 67q0 41 -20 67t-51.5 38.5t-67.5 12.5h-10v25h13q32 0 60.5 13.5t46 38.5t17.5 61q0 47 -31.5 80t-94.5 33q-34 0 -56.5 -9.5t-36 -21t-19 -21.5t-5.5 -11l-26 13q1 3 9.5 15t25.5 26.5 t44 24.5t65 10q51 0 85 -19.5t50.5 -50.5t16.5 -68q0 -35 -14.5 -62t-37 -44t-48.5 -20q26 -2 52 -17.5t44 -44.5t18 -69q0 -45 -21 -81.5t-58.5 -58t-87.5 -21.5q-47 0 -80.5 15.5t-54 38t-27.5 43.5z" />
<glyph unicode="&#xb4;" d="M287 1076l293 232l62 -77l-316 -205z" />
<glyph unicode="&#xb5;" horiz-adv-x="985" d="M120 371v470h65v-453q0 -160 72.5 -253.5t214.5 -93.5t214.5 93.5t72.5 253.5v453h65v-470q0 -113 -41 -202.5t-119 -141.5t-192 -52q-113 0 -191.5 52t-119.5 141.5t-41 202.5zM120 -401v1242h65v-1242h-65z" />
<glyph unicode="&#xb6;" horiz-adv-x="963" d="M88 1018q0 75 38.5 151.5t124 129.5t226.5 53h298v-1352h-56v1284h-131v-1284h-56v666h-55q-106 0 -180.5 33.5t-120.5 87t-67 115t-21 116.5z" />
<glyph unicode="&#xb7;" horiz-adv-x="499" d="M150 438q0 42 28 70t68 28q41 0 69 -28t28 -70q0 -40 -28 -68.5t-69 -28.5q-40 0 -68 28.5t-28 68.5z" />
<glyph unicode="&#xb8;" horiz-adv-x="804" d="M199 -377l44 55q19 -14 58.5 -29.5t83.5 -15.5q60 0 102 26t42 69q0 42 -28 62t-75 20q-32 0 -60.5 -5t-42.5 -10l-42 23l77 225l57 -29l-57 -164q42 15 99 11.5t100 -32.5t43 -88q0 -57 -33 -95t-83 -56.5t-99 -18.5q-57 0 -109 18t-77 34z" />
<glyph unicode="&#xb9;" horiz-adv-x="247" d="M52 1268v26l96 59h24v-512h-25v483z" />
<glyph unicode="&#xba;" horiz-adv-x="862" d="M139 1100q0 81 40.5 143.5t103.5 97.5t130 35q66 0 127.5 -35t101.5 -97.5t40 -143.5q0 -80 -38.5 -142t-100 -97.5t-130.5 -35.5q-74 0 -136 35.5t-100 97.5t-38 142zM213 1100q0 -92 59 -152.5t140 -60.5q77 0 138 60.5t61 152.5q0 63 -29 111.5t-75 75.5t-95 27 t-95 -27t-75 -75.5t-29 -111.5z" />
<glyph unicode="&#xbb;" horiz-adv-x="950" d="M87 126l265 330l-265 330l41 30l284 -360l-284 -363zM461 126l265 330l-265 330l39 30l285 -360l-285 -363z" />
<glyph unicode="&#xbc;" horiz-adv-x="1343" d="M132 1224v42l150 90h35v-793h-37v749zM232 0l787 1352h47l-786 -1352h-48zM751 166v37l344 585h31v-584h89v-38h-89v-166h-39v166h-336zM799 204h288v492z" />
<glyph unicode="&#xbd;" horiz-adv-x="1492" d="M148 1224v42l150 90h36v-793h-38v749zM248 0l786 1352h47l-786 -1352h-47zM879 632q1 3 11 21t31 42.5t52.5 49t74.5 40.5t98 16q49 0 89.5 -13t69.5 -40t45 -70.5t16 -105.5q0 -50 -26 -106t-69 -113t-93 -110.5t-96.5 -97t-81 -73t-47.5 -39.5h407v-38h-473v36 q27 22 68.5 57t91.5 80.5t99 96.5t90 104.5t65.5 105t24.5 97.5q0 105 -46.5 148t-133.5 43q-57 0 -100.5 -21t-71.5 -49t-43 -50.5t-16 -26.5z" />
<glyph unicode="&#xbe;" horiz-adv-x="1518" d="M92 702l35 22q9 -28 35 -56.5t67.5 -48.5t99.5 -20q67 0 112 27t69.5 71.5t24.5 99.5q0 60 -29.5 98.5t-76.5 56.5t-100 18h-16v37h21q47 0 89 20t67.5 57t25.5 90q0 70 -45.5 117.5t-139.5 47.5q-49 0 -82.5 -13t-53 -31t-28 -32.5t-8.5 -15.5l-39 18q2 5 14.5 23t38 39 t64.5 35.5t96 14.5q76 0 125 -28t73 -74t24 -99q0 -51 -21 -92t-54.5 -65.5t-70.5 -29.5q38 -2 76 -25t64 -65.5t26 -101.5q0 -66 -30 -119.5t-85.5 -85t-128.5 -31.5q-69 0 -118 22.5t-79.5 55.5t-41.5 63zM426 0l786 1352h48l-787 -1352h-47zM910 166v37l344 585h32v-584 h89v-38h-89v-166h-39v166h-337zM958 204h289v492z" />
<glyph unicode="&#xbf;" horiz-adv-x="912" d="M38 270q0 83 37 148.5t99 120.5t137 105q40 27 51 52t11 81v257h65v-298q0 -56 -24 -83t-70 -56q-51 -32 -107 -78.5t-95 -108.5t-39 -140q0 -114 83 -170.5t215 -56.5q90 0 156 34t104.5 80t48.5 83l60 -31q-3 -18 -20.5 -47t-48 -60.5t-74.5 -60t-100.5 -46.5 t-126.5 -18q-114 0 -195 37.5t-124 103.5t-43 152zM310 1282q0 40 28 68t68 28t68 -28t28 -68q0 -42 -28 -70t-68 -28t-68 28t-28 70z" />
<glyph unicode="&#xc0;" horiz-adv-x="1112" d="M47 0l474 1352h79l471 -1352h-69l-132 371h-619l-134 -371h-70zM268 436h586l-292 831h-3zM302 1614l61 77l295 -232l-40 -50z" />
<glyph unicode="&#xc1;" horiz-adv-x="1112" d="M47 0l474 1352h79l471 -1352h-69l-132 371h-619l-134 -371h-70zM268 436h586l-292 831h-3zM444 1459l295 232l61 -77l-316 -205z" />
<glyph unicode="&#xc2;" horiz-adv-x="1112" d="M47 0l474 1352h79l471 -1352h-69l-132 371h-619l-134 -371h-70zM268 436h586l-292 831h-3zM299 1509l260 191l261 -192l-49 -67l-212 155l-210 -153z" />
<glyph unicode="&#xc3;" horiz-adv-x="1112" d="M47 0l474 1352h79l471 -1352h-69l-132 371h-619l-134 -371h-70zM253 1449q10 35 33 71t58 62t80 26q61 0 99 -20t71 -40t81 -20q42 0 65 27t29 53h98q-11 -34 -35 -71t-60 -62.5t-81 -25.5q-61 0 -100.5 20t-71 39.5t-68.5 19.5q-39 0 -65 -26.5t-35 -52.5h-98zM268 436 h586l-292 831h-3z" />
<glyph unicode="&#xc4;" horiz-adv-x="1112" d="M47 0l474 1352h79l471 -1352h-69l-132 371h-619l-134 -371h-70zM268 436h586l-292 831h-3zM291 1528q0 30 22 53t53 23q30 0 53 -22.5t23 -53.5t-23 -53t-53 -22q-31 0 -53 23t-22 52zM679 1528q0 30 22 53t53 23q30 0 53 -22.5t23 -53.5t-23 -53t-53 -22q-31 0 -53 23 t-22 52z" />
<glyph unicode="&#xc5;" horiz-adv-x="1112" d="M47 0l474 1352h79l471 -1352h-69l-132 371h-619l-134 -371h-70zM268 436h586l-292 831h-3zM394 1563q0 63 48.5 106t117.5 43q70 0 117.5 -43t47.5 -106q0 -66 -46 -107.5t-119 -41.5q-75 0 -120.5 41.5t-45.5 107.5zM468 1563q0 -44 28 -69t64 -25q39 0 65 25t26 69 q0 45 -26 69t-65 24q-36 0 -64 -24t-28 -69z" />
<glyph unicode="&#xc6;" horiz-adv-x="1641" d="M28 0l765 1352h80l15 -981h-580l-212 -371h-68zM338 436h495v844l-4 16zM823 0v1352h746v-66h-683v-575h663v-66h-663v-579h683v-66h-746z" />
<glyph unicode="&#xc7;" horiz-adv-x="1271" d="M60 674q0 145 51 272.5t143.5 224t218.5 151t276 54.5q160 0 272 -42t156 -83l-30 -57q-41 39 -146 79.5t-259 40.5q-123 0 -233 -45t-196 -129t-135 -201.5t-49 -261.5q0 -145 49 -263t135 -202t196 -129t233 -45q154 0 259 41t146 79l30 -58q-44 -41 -156.5 -83 t-271.5 -42q-150 0 -275.5 54.5t-218 150t-144 222t-51.5 272.5zM558 -377l44 55q19 -14 58.5 -29.5t83.5 -15.5q60 0 102.5 26t42.5 69q0 42 -28.5 62t-75.5 20q-32 0 -60.5 -5t-42.5 -10l-42 23l78 225l56 -29l-56 -164q42 15 98.5 11.5t99.5 -32.5t43 -88q0 -57 -33 -95 t-83 -56.5t-99 -18.5q-57 0 -108.5 18t-77.5 34z" />
<glyph unicode="&#xc8;" horiz-adv-x="1059" d="M137 0v1352h746v-66h-683v-575h663v-66h-663v-579h683v-66h-746zM261 1614l61 77l295 -232l-40 -50z" />
<glyph unicode="&#xc9;" horiz-adv-x="1059" d="M137 0v1352h746v-66h-683v-575h663v-66h-663v-579h683v-66h-746zM403 1459l295 232l61 -77l-316 -205z" />
<glyph unicode="&#xca;" horiz-adv-x="1059" d="M137 0v1352h746v-66h-683v-575h663v-66h-663v-579h683v-66h-746zM258 1509l260 191l261 -192l-49 -67l-212 155l-210 -153z" />
<glyph unicode="&#xcb;" horiz-adv-x="1059" d="M137 0v1352h746v-66h-683v-575h663v-66h-663v-579h683v-66h-746zM250 1528q0 30 22 53t53 23q30 0 53 -22.5t23 -53.5t-23 -53t-53 -22q-31 0 -53 23t-22 52zM638 1528q0 30 22 53t53 23q30 0 53 -22.5t23 -53.5t-23 -53t-53 -22q-31 0 -53 23t-22 52z" />
<glyph unicode="&#xcc;" horiz-adv-x="414" d="M-72 1614l61 77l295 -232l-40 -50zM156 0v1352h65v-1352h-65z" />
<glyph unicode="&#xcd;" horiz-adv-x="414" d="M70 1459l295 232l61 -77l-316 -205zM156 0v1352h65v-1352h-65z" />
<glyph unicode="&#xce;" horiz-adv-x="414" d="M-75 1509l260 191l261 -192l-49 -67l-212 155l-210 -153zM156 0v1352h65v-1352h-65z" />
<glyph unicode="&#xcf;" horiz-adv-x="414" d="M-83 1528q0 30 22 53t53 23q30 0 53 -22.5t23 -53.5t-23 -53t-53 -22q-31 0 -53 23t-22 52zM156 0v1352h65v-1352h-65zM305 1528q0 30 22 53t53 23q30 0 53 -22.5t23 -53.5t-23 -53t-53 -22q-31 0 -53 23t-22 52z" />
<glyph unicode="&#xd0;" horiz-adv-x="1114" d="M-12 643v62h527v-62h-527zM126 0v1352h245q216 0 353 -86.5t202 -239.5t65 -349q0 -198 -64.5 -350.5t-201.5 -239.5t-354 -87h-245zM188 66h179q197 0 319.5 77.5t180.5 215t59 316.5t-56.5 316.5t-181.5 216t-321 78.5h-179v-1220z" />
<glyph unicode="&#xd1;" horiz-adv-x="1310" d="M137 0v1352h104l830 -1283h-1v1283h64v-1352h-104l-830 1283h2v-1283h-65zM386 1561q10 35 33 71t58 61.5t80 25.5q61 0 99 -20t71.5 -40t80.5 -20q42 0 65 27.5t29 52.5h99q-11 -34 -35.5 -70.5t-60.5 -62t-81 -25.5q-61 0 -100.5 20t-70.5 39t-68 19q-39 0 -65 -26.5 t-36 -51.5h-98z" />
<glyph unicode="&#xd2;" horiz-adv-x="1444" d="M49 677q0 147 49 274.5t138 223t208 148.5t258 53q140 0 258.5 -53t207 -148.5t137.5 -223t49 -274.5q0 -148 -49 -276t-137.5 -223.5t-206.5 -149t-259 -53.5q-139 0 -258 53.5t-208 149t-138 223.5t-49 276zM115 677q0 -180 76 -324t208.5 -228t302.5 -84 q171 0 303.5 84t207.5 228t75 324t-75 323.5t-207.5 227t-303.5 83.5q-170 0 -302.5 -83.5t-208.5 -227t-76 -323.5zM444 1614l61 77l295 -232l-40 -50z" />
<glyph unicode="&#xd3;" horiz-adv-x="1444" d="M49 677q0 147 49 274.5t138 223t208 148.5t258 53q140 0 258.5 -53t207 -148.5t137.5 -223t49 -274.5q0 -148 -49 -276t-137.5 -223.5t-206.5 -149t-259 -53.5q-139 0 -258 53.5t-208 149t-138 223.5t-49 276zM115 677q0 -180 76 -324t208.5 -228t302.5 -84 q171 0 303.5 84t207.5 228t75 324t-75 323.5t-207.5 227t-303.5 83.5q-170 0 -302.5 -83.5t-208.5 -227t-76 -323.5zM586 1459l295 232l61 -77l-316 -205z" />
<glyph unicode="&#xd4;" horiz-adv-x="1444" d="M49 677q0 147 49 274.5t138 223t208 148.5t258 53q140 0 258.5 -53t207 -148.5t137.5 -223t49 -274.5q0 -148 -49 -276t-137.5 -223.5t-206.5 -149t-259 -53.5q-139 0 -258 53.5t-208 149t-138 223.5t-49 276zM115 677q0 -180 76 -324t208.5 -228t302.5 -84 q171 0 303.5 84t207.5 228t75 324t-75 323.5t-207.5 227t-303.5 83.5q-170 0 -302.5 -83.5t-208.5 -227t-76 -323.5zM441 1509l260 191l261 -192l-49 -67l-212 155l-210 -153z" />
<glyph unicode="&#xd5;" horiz-adv-x="1444" d="M49 677q0 147 49 274.5t138 223t208 148.5t258 53q140 0 258.5 -53t207 -148.5t137.5 -223t49 -274.5q0 -148 -49 -276t-137.5 -223.5t-206.5 -149t-259 -53.5q-139 0 -258 53.5t-208 149t-138 223.5t-49 276zM115 677q0 -180 76 -324t208.5 -228t302.5 -84 q171 0 303.5 84t207.5 228t75 324t-75 323.5t-207.5 227t-303.5 83.5q-170 0 -302.5 -83.5t-208.5 -227t-76 -323.5zM412 1561q10 35 33 71t58 61.5t80 25.5q61 0 99 -20t71.5 -40t80.5 -20q42 0 65 27.5t29 52.5h99q-11 -34 -35.5 -70.5t-60.5 -62t-81 -25.5 q-61 0 -100.5 20t-70.5 39t-68 19q-39 0 -65 -26.5t-36 -51.5h-98z" />
<glyph unicode="&#xd6;" horiz-adv-x="1444" d="M49 677q0 147 49 274.5t138 223t208 148.5t258 53q140 0 258.5 -53t207 -148.5t137.5 -223t49 -274.5q0 -148 -49 -276t-137.5 -223.5t-206.5 -149t-259 -53.5q-139 0 -258 53.5t-208 149t-138 223.5t-49 276zM115 677q0 -180 76 -324t208.5 -228t302.5 -84 q171 0 303.5 84t207.5 228t75 324t-75 323.5t-207.5 227t-303.5 83.5q-170 0 -302.5 -83.5t-208.5 -227t-76 -323.5zM433 1528q0 30 22 53t53 23q30 0 53 -22.5t23 -53.5t-23 -53t-53 -22q-31 0 -53 23t-22 52zM821 1528q0 30 22 53t53 23q30 0 53 -22.5t23 -53.5t-23 -53 t-53 -22q-31 0 -53 23t-22 52z" />
<glyph unicode="&#xd7;" horiz-adv-x="1005" d="M129 371l311 309l-309 309l44 45l310 -310l308 310l45 -45l-311 -309l312 -309l-44 -45l-310 310l-311 -310z" />
<glyph unicode="&#xd8;" horiz-adv-x="1412" d="M25 22l1299 1316l46 -42l-1299 -1318zM49 677q0 147 49 274.5t138 223t208 148.5t258 53q140 0 258.5 -53t207 -148.5t137.5 -223t49 -274.5q0 -148 -49 -276t-137.5 -223.5t-206.5 -149t-259 -53.5q-139 0 -258 53.5t-208 149t-138 223.5t-49 276zM115 677 q0 -180 76 -324t208.5 -228t302.5 -84q171 0 303.5 84t207.5 228t75 324t-75 323.5t-207.5 227t-303.5 83.5q-170 0 -302.5 -83.5t-208.5 -227t-76 -323.5z" />
<glyph unicode="&#xd9;" horiz-adv-x="1247" d="M115 505v847h63v-844q0 -140 58.5 -245t156 -163.5t215.5 -58.5t215 58.5t154.5 163.5t57.5 245v844h65v-847q0 -167 -67.5 -286t-179.5 -181.5t-245 -62.5t-245.5 62.5t-180 181.5t-67.5 286zM350 1614l61 77l295 -232l-40 -50z" />
<glyph unicode="&#xda;" horiz-adv-x="1247" d="M115 505v847h63v-844q0 -140 58.5 -245t156 -163.5t215.5 -58.5t215 58.5t154.5 163.5t57.5 245v844h65v-847q0 -167 -67.5 -286t-179.5 -181.5t-245 -62.5t-245.5 62.5t-180 181.5t-67.5 286zM492 1459l295 232l61 -77l-316 -205z" />
<glyph unicode="&#xdb;" horiz-adv-x="1247" d="M115 505v847h63v-844q0 -140 58.5 -245t156 -163.5t215.5 -58.5t215 58.5t154.5 163.5t57.5 245v844h65v-847q0 -167 -67.5 -286t-179.5 -181.5t-245 -62.5t-245.5 62.5t-180 181.5t-67.5 286zM347 1509l260 191l261 -192l-49 -67l-212 155l-210 -153z" />
<glyph unicode="&#xdc;" horiz-adv-x="1247" d="M115 505v847h63v-844q0 -140 58.5 -245t156 -163.5t215.5 -58.5t215 58.5t154.5 163.5t57.5 245v844h65v-847q0 -167 -67.5 -286t-179.5 -181.5t-245 -62.5t-245.5 62.5t-180 181.5t-67.5 286zM339 1528q0 30 22 53t53 23q30 0 53 -22.5t23 -53.5t-23 -53t-53 -22 q-31 0 -53 23t-22 52zM727 1528q0 30 22 53t53 23q30 0 53 -22.5t23 -53.5t-23 -53t-53 -22q-31 0 -53 23t-22 52z" />
<glyph unicode="&#xdd;" horiz-adv-x="1050" d="M28 1352h75l402 -785l399 785h76l-442 -866v-486h-66v486zM389 1459l295 232l61 -77l-316 -205z" />
<glyph unicode="&#xde;" horiz-adv-x="985" d="M137 0v1352h63v-251h297q115 0 202 -45.5t136.5 -138t49.5 -232.5q0 -139 -49.5 -236t-137 -147.5t-201.5 -50.5h-297v-251h-63zM200 314h292q153 0 241.5 97.5t88.5 276.5q0 180 -89 264.5t-241 84.5h-292v-723z" />
<glyph unicode="&#xdf;" horiz-adv-x="948" d="M98 0v1019q0 123 47.5 216.5t129 146t186.5 52.5q142 0 232.5 -85.5t90.5 -253.5q0 -98 -45 -174t-107.5 -122t-113.5 -56q68 -8 140.5 -55t123.5 -126.5t51 -184.5q0 -129 -55 -218.5t-158.5 -136.5t-248.5 -47v66q138 0 225 46.5t128 123t41 163.5q0 159 -104.5 245 t-289.5 86v65q163 0 254 93.5t91 239.5q0 101 -36 159t-94 82t-125 24q-100 0 -166.5 -52t-98.5 -134.5t-32 -171.5v-1010h-66z" />
<glyph unicode="&#xe0;" horiz-adv-x="1032" d="M59 420q0 143 59.5 242.5t156.5 151t208 51.5q101 0 175.5 -39.5t117 -89.5t45.5 -83v188h64v-841h-64v186q-6 -29 -47.5 -79.5t-115 -91t-175.5 -40.5q-112 0 -208.5 51.5t-156 150.5t-59.5 243zM125 420q0 -119 51 -204t132 -130t169 -45q97 0 174 46t121.5 131 t44.5 202t-44.5 202t-121.5 131.5t-174 46.5q-88 0 -169 -45.5t-132 -130.5t-51 -204zM323 1231l61 77l295 -232l-40 -50z" />
<glyph unicode="&#xe1;" horiz-adv-x="1032" d="M59 420q0 143 59.5 242.5t156.5 151t208 51.5q101 0 175.5 -39.5t117 -89.5t45.5 -83v188h64v-841h-64v186q-6 -29 -47.5 -79.5t-115 -91t-175.5 -40.5q-112 0 -208.5 51.5t-156 150.5t-59.5 243zM125 420q0 -119 51 -204t132 -130t169 -45q97 0 174 46t121.5 131 t44.5 202t-44.5 202t-121.5 131.5t-174 46.5q-88 0 -169 -45.5t-132 -130.5t-51 -204zM322 1026l293 231l62 -77l-316 -205z" />
<glyph unicode="&#xe2;" horiz-adv-x="1032" d="M59 420q0 143 59.5 242.5t156.5 151t208 51.5q101 0 175.5 -39.5t117 -89.5t45.5 -83v188h64v-841h-64v186q-6 -29 -47.5 -79.5t-115 -91t-175.5 -40.5q-112 0 -208.5 51.5t-156 150.5t-59.5 243zM125 420q0 -119 51 -204t132 -130t169 -45q97 0 174 46t121.5 131 t44.5 202t-44.5 202t-121.5 131.5t-174 46.5q-88 0 -169 -45.5t-132 -130.5t-51 -204zM223 1027l260 190l261 -191l-49 -68l-212 156l-210 -154z" />
<glyph unicode="&#xe3;" horiz-adv-x="1032" d="M59 420q0 143 59.5 242.5t156.5 151t208 51.5q101 0 175.5 -39.5t117 -89.5t45.5 -83v188h64v-841h-64v186q-6 -29 -47.5 -79.5t-115 -91t-175.5 -40.5q-112 0 -208.5 51.5t-156 150.5t-59.5 243zM125 420q0 -119 51 -204t132 -130t169 -45q97 0 174 46t121.5 131 t44.5 202t-44.5 202t-121.5 131.5t-174 46.5q-88 0 -169 -45.5t-132 -130.5t-51 -204zM192 1050q10 35 33 71t58 61.5t80 25.5q61 0 99 -20t71.5 -40t80.5 -20q42 0 65 27.5t29 52.5h99q-11 -34 -35.5 -70.5t-60.5 -62t-81 -25.5q-61 0 -100.5 20t-70.5 39t-68 19 q-39 0 -65 -26.5t-36 -51.5h-98z" />
<glyph unicode="&#xe4;" horiz-adv-x="1032" d="M59 420q0 143 59.5 242.5t156.5 151t208 51.5q101 0 175.5 -39.5t117 -89.5t45.5 -83v188h64v-841h-64v186q-6 -29 -47.5 -79.5t-115 -91t-175.5 -40.5q-112 0 -208.5 51.5t-156 150.5t-59.5 243zM125 420q0 -119 51 -204t132 -130t169 -45q97 0 174 46t121.5 131 t44.5 202t-44.5 202t-121.5 131.5t-174 46.5q-88 0 -169 -45.5t-132 -130.5t-51 -204zM229 1115q0 30 22 53t53 23q30 0 53 -22.5t23 -53.5t-23 -53t-53 -22q-31 0 -53 23t-22 52zM617 1115q0 30 22 53t53 23q30 0 53 -22.5t23 -53.5t-23 -53t-53 -22q-31 0 -53 23t-22 52z " />
<glyph unicode="&#xe5;" horiz-adv-x="1032" d="M59 420q0 143 59.5 242.5t156.5 151t208 51.5q101 0 175.5 -39.5t117 -89.5t45.5 -83v188h64v-841h-64v186q-6 -29 -47.5 -79.5t-115 -91t-175.5 -40.5q-112 0 -208.5 51.5t-156 150.5t-59.5 243zM125 420q0 -119 51 -204t132 -130t169 -45q97 0 174 46t121.5 131 t44.5 202t-44.5 202t-121.5 131.5t-174 46.5q-88 0 -169 -45.5t-132 -130.5t-51 -204zM318 1101q0 43 22.5 77t60 53.5t83.5 19.5q47 0 83.5 -19.5t59 -53.5t22.5 -77q0 -66 -46 -107t-119 -41q-75 0 -120.5 41.5t-45.5 106.5zM391 1101q0 -44 28.5 -68.5t64.5 -24.5 q39 0 65 24.5t26 68.5q0 45 -26 69t-65 24q-36 0 -64.5 -24t-28.5 -69z" />
<glyph unicode="&#xe6;" horiz-adv-x="1445" d="M59 256q0 84 45.5 145t118.5 94.5t159 33.5q73 0 127.5 -17.5t88.5 -39.5t43 -35v52q0 96 -26.5 157.5t-67 94.5t-82.5 46t-74 13q-82 0 -145.5 -36t-89.5 -71l-52 64q31 35 106.5 71.5t180.5 36.5q92 0 153.5 -35.5t97.5 -88t51 -102.5q11 49 54 102t108 88.5t141 35.5 q108 0 186.5 -50t121 -149t42.5 -246q0 -9 -1.5 -9.5t-1.5 -9.5h-630q0 -116 29.5 -196.5t93.5 -122t166 -41.5q78 0 134.5 34.5t91 76t44.5 61.5l58 -38q-20 -35 -65.5 -82t-113.5 -82.5t-155 -35.5q-75 0 -142 26.5t-114 69t-65 91.5q-10 -31 -50.5 -75t-104 -78 t-145.5 -34q-83 0 -155.5 29.5t-116.5 92t-44 159.5zM126 254q0 -92 69 -151.5t171 -61.5q80 -1 141.5 33t97.5 86t36 105q0 92 -72.5 145.5t-178.5 53.5q-61 0 -122 -24t-101.5 -70.5t-40.5 -115.5zM721 464h549q-1 33 -10.5 88.5t-36.5 112.5t-79.5 96t-141.5 39 q-129 0 -200 -91t-81 -245z" />
<glyph unicode="&#xe7;" horiz-adv-x="830" d="M71 421q0 151 61 249t151.5 146.5t180.5 48.5q76 0 132.5 -19.5t92 -42t43.5 -31.5l-39 -57q-9 9 -36 29.5t-73 38t-112 17.5q-79 0 -156.5 -43.5t-128.5 -128t-51 -207.5t51 -208t128.5 -128.5t156.5 -43.5q98 0 156.5 30t70.5 41l40 -58q-6 -5 -43 -24.5t-96.5 -37 t-135.5 -17.5q-90 0 -180.5 49t-151.5 148t-61 249zM215 -377l44 55q19 -14 58.5 -29.5t83.5 -15.5q60 0 102 26t42 69q0 42 -28 62t-75 20q-32 0 -60.5 -5t-42.5 -10l-42 23l77 225l57 -29l-57 -164q42 15 99 11.5t100 -32.5t43 -88q0 -57 -33 -95t-83 -56.5t-99 -18.5 q-57 0 -109 18t-77 34z" />
<glyph unicode="&#xe8;" horiz-adv-x="941" d="M59 431q0 123 48 221.5t138.5 155.5t218.5 57q114 0 198 -52.5t131.5 -143.5t47.5 -208q0 -9 -1 -18t-1 -17h-710q0 -99 37 -187.5t112.5 -144t191.5 -55.5q93 0 153 31.5t94.5 74t47.5 74.5l60 -41q-41 -67 -91 -112.5t-115 -68t-152 -22.5q-132 0 -223 62t-138 166 t-47 228zM134 492h634q-2 67 -30 138t-93.5 121t-180.5 50q-121 0 -191 -48t-101.5 -120t-37.5 -141zM296 1231l61 77l295 -232l-40 -50z" />
<glyph unicode="&#xe9;" horiz-adv-x="941" d="M59 431q0 123 48 221.5t138.5 155.5t218.5 57q114 0 198 -52.5t131.5 -143.5t47.5 -208q0 -9 -1 -18t-1 -17h-710q0 -99 37 -187.5t112.5 -144t191.5 -55.5q93 0 153 31.5t94.5 74t47.5 74.5l60 -41q-41 -67 -91 -112.5t-115 -68t-152 -22.5q-132 0 -223 62t-138 166 t-47 228zM134 492h634q-2 67 -30 138t-93.5 121t-180.5 50q-121 0 -191 -48t-101.5 -120t-37.5 -141zM296 1026l293 231l62 -77l-316 -205z" />
<glyph unicode="&#xea;" horiz-adv-x="941" d="M59 431q0 123 48 221.5t138.5 155.5t218.5 57q114 0 198 -52.5t131.5 -143.5t47.5 -208q0 -9 -1 -18t-1 -17h-710q0 -99 37 -187.5t112.5 -144t191.5 -55.5q93 0 153 31.5t94.5 74t47.5 74.5l60 -41q-41 -67 -91 -112.5t-115 -68t-152 -22.5q-132 0 -223 62t-138 166 t-47 228zM134 492h634q-2 67 -30 138t-93.5 121t-180.5 50q-121 0 -191 -48t-101.5 -120t-37.5 -141zM197 1027l260 190l261 -191l-49 -68l-212 156l-210 -154z" />
<glyph unicode="&#xeb;" horiz-adv-x="941" d="M59 431q0 123 48 221.5t138.5 155.5t218.5 57q114 0 198 -52.5t131.5 -143.5t47.5 -208q0 -9 -1 -18t-1 -17h-710q0 -99 37 -187.5t112.5 -144t191.5 -55.5q93 0 153 31.5t94.5 74t47.5 74.5l60 -41q-41 -67 -91 -112.5t-115 -68t-152 -22.5q-132 0 -223 62t-138 166 t-47 228zM134 492h634q-2 67 -30 138t-93.5 121t-180.5 50q-121 0 -191 -48t-101.5 -120t-37.5 -141zM203 1115q0 30 22 53t53 23q30 0 53 -22.5t23 -53.5t-23 -53t-53 -22q-31 0 -53 23t-22 52zM591 1115q0 30 22 53t53 23q30 0 53 -22.5t23 -53.5t-23 -53t-53 -22 q-31 0 -53 23t-22 52z" />
<glyph unicode="&#xec;" horiz-adv-x="347" d="M-7 1231l61 77l295 -232l-40 -50zM121 0v841h65v-841h-65z" />
<glyph unicode="&#xed;" horiz-adv-x="347" d="M-7 1026l293 231l62 -77l-316 -205zM121 0v841h65v-841h-65z" />
<glyph unicode="&#xee;" horiz-adv-x="347" d="M-106 1027l260 190l261 -191l-49 -68l-212 156l-210 -154zM121 0v841h65v-841h-65z" />
<glyph unicode="&#xef;" horiz-adv-x="347" d="M-101 1115q0 30 22 53t53 23q30 0 53 -22.5t23 -53.5t-23 -53t-53 -22q-31 0 -53 23t-22 52zM121 0v841h65v-841h-65zM287 1115q0 30 22 53t53 23q30 0 53 -22.5t23 -53.5t-23 -53t-53 -22q-31 0 -53 23t-22 52z" />
<glyph unicode="&#xf0;" horiz-adv-x="1095" d="M95 420q0 103 34.5 185.5t94.5 140.5t137.5 88.5t165.5 30.5q106 0 177 -25.5t110.5 -55.5t51.5 -44q-22 73 -78 149t-131.5 142.5t-156.5 109.5l-161 -174l-60 57l145 147q-24 12 -65 27.5t-81.5 28.5t-64.5 18l28 60q41 -10 88.5 -26.5t87 -31.5t55.5 -23l140 152 l74 -57l-142 -129q121 -67 219.5 -162.5t157.5 -238.5t59 -353q0 -129 -49.5 -233.5t-147.5 -166t-242 -61.5q-141 0 -241 57t-152.5 157.5t-52.5 230.5zM161 420q0 -109 46 -195.5t130.5 -136t201.5 -49.5q128 0 211.5 50.5t123.5 136.5t40 194q0 194 -96 287t-279 93 q-170 0 -274 -101.5t-104 -278.5z" />
<glyph unicode="&#xf1;" horiz-adv-x="976" d="M137 0v841h66v-172q6 37 48 83t108.5 79.5t145.5 33.5q77 0 150.5 -33.5t121 -107t47.5 -189.5v-535h-67v513q0 155 -72 221t-182 66q-74 0 -142.5 -43t-113 -117t-44.5 -165v-475h-66zM162 1050q10 35 33 71t58 61.5t80 25.5q61 0 99 -20t71.5 -40t80.5 -20 q42 0 65 27.5t29 52.5h99q-11 -34 -35.5 -70.5t-60.5 -62t-81 -25.5q-61 0 -100.5 20t-70.5 39t-68 19q-39 0 -65 -26.5t-36 -51.5h-98z" />
<glyph unicode="&#xf2;" d="M59 418q0 123 54.5 224.5t149.5 162t218 60.5t218 -60.5t148.5 -162t53.5 -224.5t-53.5 -223.5t-148.5 -160t-218 -59.5t-218 59.5t-149.5 160t-54.5 223.5zM125 418q0 -106 44.5 -192t125 -135.5t186.5 -49.5t186.5 49.5t124.5 135t44 192.5q0 106 -44 192.5t-124 138 t-187 51.5q-106 0 -186.5 -51.5t-125 -138t-44.5 -192.5zM320 1231l61 77l295 -232l-40 -50z" />
<glyph unicode="&#xf3;" d="M59 418q0 123 54.5 224.5t149.5 162t218 60.5t218 -60.5t148.5 -162t53.5 -224.5t-53.5 -223.5t-148.5 -160t-218 -59.5t-218 59.5t-149.5 160t-54.5 223.5zM125 418q0 -106 44.5 -192t125 -135.5t186.5 -49.5t186.5 49.5t124.5 135t44 192.5q0 106 -44 192.5t-124 138 t-187 51.5q-106 0 -186.5 -51.5t-125 -138t-44.5 -192.5zM319 1026l293 231l62 -77l-316 -205z" />
<glyph unicode="&#xf4;" d="M59 418q0 123 54.5 224.5t149.5 162t218 60.5t218 -60.5t148.5 -162t53.5 -224.5t-53.5 -223.5t-148.5 -160t-218 -59.5t-218 59.5t-149.5 160t-54.5 223.5zM125 418q0 -106 44.5 -192t125 -135.5t186.5 -49.5t186.5 49.5t124.5 135t44 192.5q0 106 -44 192.5t-124 138 t-187 51.5q-106 0 -186.5 -51.5t-125 -138t-44.5 -192.5zM220 1027l260 190l261 -191l-49 -68l-212 156l-210 -154z" />
<glyph unicode="&#xf5;" d="M59 418q0 123 54.5 224.5t149.5 162t218 60.5t218 -60.5t148.5 -162t53.5 -224.5t-53.5 -223.5t-148.5 -160t-218 -59.5t-218 59.5t-149.5 160t-54.5 223.5zM125 418q0 -106 44.5 -192t125 -135.5t186.5 -49.5t186.5 49.5t124.5 135t44 192.5q0 106 -44 192.5t-124 138 t-187 51.5q-106 0 -186.5 -51.5t-125 -138t-44.5 -192.5zM170 1070q10 35 33 71.5t58 62t80 25.5q61 0 99 -20t71.5 -40t80.5 -20q42 0 65 27t29 53h98q-11 -34 -35 -71t-60 -62.5t-81 -25.5q-61 0 -100.5 20t-71 39.5t-68.5 19.5q-39 0 -65 -26.5t-35 -52.5h-98z" />
<glyph unicode="&#xf6;" d="M59 418q0 123 54.5 224.5t149.5 162t218 60.5t218 -60.5t148.5 -162t53.5 -224.5t-53.5 -223.5t-148.5 -160t-218 -59.5t-218 59.5t-149.5 160t-54.5 223.5zM125 418q0 -106 44.5 -192t125 -135.5t186.5 -49.5t186.5 49.5t124.5 135t44 192.5q0 106 -44 192.5t-124 138 t-187 51.5q-106 0 -186.5 -51.5t-125 -138t-44.5 -192.5zM226 1115q0 30 22 53t53 23q30 0 53 -22.5t23 -53.5t-23 -53t-53 -22q-31 0 -53 23t-22 52zM614 1115q0 30 22 53t53 23q30 0 53 -22.5t23 -53.5t-23 -53t-53 -22q-31 0 -53 23t-22 52z" />
<glyph unicode="&#xf7;" horiz-adv-x="1029" d="M125 644v63h738v-63h-738zM420 369q0 33 21.5 54t50.5 21q33 0 54 -21.5t21 -53.5q0 -29 -22.5 -50t-52.5 -21q-29 0 -50.5 21t-21.5 50zM420 986q0 33 21.5 54.5t50.5 21.5q33 0 54 -22.5t21 -53.5q0 -29 -21.5 -50.5t-53.5 -21.5q-29 0 -50.5 21.5t-21.5 50.5z" />
<glyph unicode="&#xf8;" d="M43 22l836 846l45 -43l-836 -847zM59 418q0 123 54.5 224.5t149.5 162t218 60.5t218 -60.5t148.5 -162t53.5 -224.5t-53.5 -223.5t-148.5 -160t-218 -59.5t-218 59.5t-149.5 160t-54.5 223.5zM125 418q0 -106 44.5 -192t125 -135.5t186.5 -49.5t186.5 49.5t124.5 135 t44 192.5q0 106 -44 192.5t-124 138t-187 51.5q-106 0 -186.5 -51.5t-125 -138t-44.5 -192.5z" />
<glyph unicode="&#xf9;" horiz-adv-x="985" d="M120 371v470h65v-453q0 -160 72.5 -253.5t214.5 -93.5t214.5 93.5t72.5 253.5v453h65v-470q0 -113 -41 -202.5t-119 -141.5t-192 -52q-113 0 -191.5 52t-119.5 141.5t-41 202.5zM312 1231l61 77l295 -232l-40 -50z" />
<glyph unicode="&#xfa;" horiz-adv-x="985" d="M120 371v470h65v-453q0 -160 72.5 -253.5t214.5 -93.5t214.5 93.5t72.5 253.5v453h65v-470q0 -113 -41 -202.5t-119 -141.5t-192 -52q-113 0 -191.5 52t-119.5 141.5t-41 202.5zM311 1026l293 231l62 -77l-316 -205z" />
<glyph unicode="&#xfb;" horiz-adv-x="985" d="M120 371v470h65v-453q0 -160 72.5 -253.5t214.5 -93.5t214.5 93.5t72.5 253.5v453h65v-470q0 -113 -41 -202.5t-119 -141.5t-192 -52q-113 0 -191.5 52t-119.5 141.5t-41 202.5zM212 1027l260 190l261 -191l-49 -68l-212 156l-210 -154z" />
<glyph unicode="&#xfc;" horiz-adv-x="985" d="M120 371v470h65v-453q0 -160 72.5 -253.5t214.5 -93.5t214.5 93.5t72.5 253.5v453h65v-470q0 -113 -41 -202.5t-119 -141.5t-192 -52q-113 0 -191.5 52t-119.5 141.5t-41 202.5zM218 1115q0 30 22 53t53 23q30 0 53 -22.5t23 -53.5t-23 -53t-53 -22q-31 0 -53 23t-22 52z M606 1115q0 30 22 53t53 23q30 0 53 -22.5t23 -53.5t-23 -53t-53 -22q-31 0 -53 23t-22 52z" />
<glyph unicode="&#xfd;" horiz-adv-x="855" d="M31 841h72l309 -769l330 769h72l-558 -1267h-71l189 426zM247 1026l293 231l62 -77l-316 -205z" />
<glyph unicode="&#xfe;" horiz-adv-x="1012" d="M123 0h65v-426h-65v426zM123 0v1409h68v-756q4 35 49 85t122.5 88.5t180.5 38.5q113 0 205 -51.5t147 -151t55 -242.5t-55 -242.5t-147.5 -151t-204.5 -51.5q-103 0 -182 40t-124.5 90.5t-48.5 80.5v-186h-65zM191 420q0 -117 49 -202t130.5 -131t178.5 -46 q88 0 163.5 45t123 130t47.5 204t-47.5 204t-123 130.5t-163.5 45.5q-97 0 -178.5 -46.5t-130.5 -131.5t-49 -202z" />
<glyph unicode="&#xff;" horiz-adv-x="855" d="M31 841h72l309 -769l330 769h72l-558 -1267h-71l189 426zM153 1115q0 30 22 53t53 23q30 0 53 -22.5t23 -53.5t-23 -53t-53 -22q-31 0 -53 23t-22 52zM541 1115q0 30 22 53t53 23q30 0 53 -22.5t23 -53.5t-23 -53t-53 -22q-31 0 -53 23t-22 52z" />
<glyph unicode="&#x152;" horiz-adv-x="1579" d="M72 677q0 147 44.5 271t127 214t196.5 140t253 50h730v-66h-607v-575h588v-66h-588v-579h607v-66h-730q-153 0 -269 49.5t-194 140.5t-118 214.5t-40 272.5zM139 677q0 -170 61 -310t182 -224t301 -84h71v1237h-71q-171 0 -293 -84.5t-186.5 -224.5t-64.5 -310z" />
<glyph unicode="&#x153;" horiz-adv-x="1714" d="M59 418q0 123 54.5 224.5t149.5 162t218 60.5t218 -60.5t148.5 -162t53.5 -224.5t-53.5 -223.5t-148.5 -160t-218 -59.5t-218 59.5t-149.5 160t-54.5 223.5zM125 418q0 -106 44.5 -192t125 -135.5t186.5 -49.5t186.5 49.5t124.5 135t44 192.5q0 106 -44 192.5t-124 138 t-187 51.5q-106 0 -186.5 -51.5t-125 -138t-44.5 -192.5zM832 431q0 123 48 221.5t138.5 155.5t218.5 57q114 0 198 -52.5t131.5 -143.5t47.5 -208q0 -9 -1 -18t-1 -17h-710q0 -99 37 -187.5t112.5 -144t191.5 -55.5q93 0 153 31.5t94.5 74t47.5 74.5l60 -41 q-41 -67 -91 -112.5t-115 -68t-152 -22.5q-132 0 -223 62t-138 166t-47 228zM907 492h634q-2 67 -30 138t-93.5 121t-180.5 50q-121 0 -191 -48t-101.5 -120t-37.5 -141z" />
<glyph unicode="&#x178;" horiz-adv-x="1050" d="M28 1352h75l402 -785l399 785h76l-442 -866v-486h-66v486zM235 1528q0 30 22 53t53 23q30 0 53 -22.5t23 -53.5t-23 -53t-53 -22q-31 0 -53 23t-22 52zM623 1528q0 30 22 53t53 23q30 0 53 -22.5t23 -53.5t-23 -53t-53 -22q-31 0 -53 23t-22 52z" />
<glyph unicode="&#x2c6;" horiz-adv-x="1027" d="M234 1153l261 190l261 -191l-49 -68l-212 156l-210 -154z" />
<glyph unicode="&#x2dc;" horiz-adv-x="1059" d="M203 1070q10 35 33 71.5t58 62t80 25.5q61 0 99 -20t71.5 -40t80.5 -20q42 0 65 27t29 53h98q-11 -34 -35 -71t-60 -62.5t-81 -25.5q-61 0 -100.5 20t-71 39.5t-68.5 19.5q-39 0 -65 -26.5t-35 -52.5h-98z" />
<glyph unicode="&#x2000;" horiz-adv-x="859" />
<glyph unicode="&#x2001;" horiz-adv-x="1719" />
<glyph unicode="&#x2002;" horiz-adv-x="859" />
<glyph unicode="&#x2003;" horiz-adv-x="1719" />
<glyph unicode="&#x2004;" horiz-adv-x="573" />
<glyph unicode="&#x2005;" horiz-adv-x="429" />
<glyph unicode="&#x2006;" horiz-adv-x="286" />
<glyph unicode="&#x2007;" horiz-adv-x="286" />
<glyph unicode="&#x2008;" horiz-adv-x="214" />
<glyph unicode="&#x2009;" horiz-adv-x="343" />
<glyph unicode="&#x200a;" horiz-adv-x="95" />
<glyph unicode="&#x2010;" horiz-adv-x="797" d="M115 436v62h527v-62h-527z" />
<glyph unicode="&#x2011;" horiz-adv-x="797" d="M115 436v62h527v-62h-527z" />
<glyph unicode="&#x2012;" horiz-adv-x="797" d="M115 436v62h527v-62h-527z" />
<glyph unicode="&#x2013;" horiz-adv-x="876" d="M27 436v62h782v-62h-782z" />
<glyph unicode="&#x2014;" horiz-adv-x="1613" d="M44 436v62h1483v-62h-1483z" />
<glyph unicode="&#x2018;" horiz-adv-x="434" d="M85 1090q0 69 26 120t63 85.5t69 53.5l38 -60q-27 -9 -52.5 -35.5t-42.5 -58.5t-19 -59q8 12 29.5 22t47.5 10q42 0 71 -28t29 -70q0 -56 -36.5 -90.5t-92.5 -34.5q-55 0 -92.5 38.5t-37.5 106.5z" />
<glyph unicode="&#x2019;" horiz-adv-x="434" d="M52 1185q0 57 36.5 91t92.5 34q55 0 92.5 -38.5t37.5 -106.5q0 -69 -26 -120t-62 -85.5t-69 -53.5l-38 60q27 10 52.5 36t42.5 58.5t18 58.5q-7 -12 -29 -22.5t-47 -10.5q-42 0 -71.5 29t-29.5 70z" />
<glyph unicode="&#x201a;" horiz-adv-x="470" d="M123 69q0 34 14.5 59t39 38.5t57.5 13.5q50 0 85.5 -35.5t35.5 -87.5q0 -62 -24 -115t-63.5 -92.5t-85.5 -64.5l-54 48q28 12 59 34t55.5 51t30.5 63q-24 -11 -49 -12q-44 0 -72.5 32.5t-28.5 67.5z" />
<glyph unicode="&#x201c;" horiz-adv-x="835" d="M134 1090q0 69 26 120t63 85.5t69 53.5l38 -60q-27 -9 -52.5 -35.5t-42.5 -58.5t-19 -59q8 12 29.5 22t47.5 10q42 0 71 -28t29 -70q0 -56 -36.5 -90.5t-92.5 -34.5q-55 0 -92.5 38.5t-37.5 106.5zM492 1090q0 69 26 120t63 85.5t69 53.5l38 -60q-27 -9 -52.5 -35.5 t-42.5 -58.5t-19 -59q8 12 29.5 22t47.5 10q42 0 71 -28t29 -70q0 -56 -36.5 -90.5t-92.5 -34.5q-55 0 -92.5 38.5t-37.5 106.5z" />
<glyph unicode="&#x201d;" horiz-adv-x="835" d="M85 1175q0 57 36.5 90.5t92.5 33.5q55 0 92.5 -38t37.5 -106q0 -69 -26 -120t-62.5 -85.5t-69.5 -53.5l-38 59q27 10 52.5 36.5t43 58.5t18.5 59q-7 -12 -29 -22.5t-48 -10.5q-42 0 -71 29t-29 70zM442 1175q0 57 36.5 90.5t92.5 33.5q55 0 92.5 -38t37.5 -106 q0 -69 -26 -120t-62 -85.5t-69 -53.5l-38 59q27 10 52.5 36.5t42.5 58.5t19 59q-7 -12 -29.5 -22.5t-47.5 -10.5q-42 0 -71.5 29t-29.5 70z" />
<glyph unicode="&#x201e;" horiz-adv-x="789" d="M123 69q0 34 14.5 59t39 38.5t57.5 13.5q50 0 85.5 -35.5t35.5 -87.5q0 -62 -24 -115t-63.5 -92.5t-85.5 -64.5l-54 48q28 12 59 34t55.5 51t30.5 63q-24 -11 -49 -12q-44 0 -72.5 32.5t-28.5 67.5zM475 69q0 34 14.5 59t39 38.5t57.5 13.5q50 0 85.5 -35.5t35.5 -87.5 q0 -62 -24 -115t-63.5 -92.5t-85.5 -64.5l-54 48q28 12 59 34t55.5 51t30.5 63q-24 -11 -49 -12q-44 0 -72.5 32.5t-28.5 67.5z" />
<glyph unicode="&#x2022;" horiz-adv-x="971" d="M316 584q0 43 20 76.5t53.5 53.5t74.5 20q43 0 76.5 -20t53.5 -53.5t20 -76.5q0 -41 -20 -74.5t-53.5 -53.5t-76.5 -20q-41 0 -74.5 20t-53.5 53.5t-20 74.5z" />
<glyph unicode="&#x2026;" horiz-adv-x="1479" d="M170 72q0 42 28 70t68 28q41 0 69 -28t28 -70q0 -40 -28 -68.5t-69 -28.5q-40 0 -68 28.5t-28 68.5zM641 72q0 42 28 70t68 28q41 0 69 -28t28 -70q0 -40 -28 -68.5t-69 -28.5q-40 0 -68 28.5t-28 68.5zM1111 72q0 42 28 70t68 28q41 0 69 -28t28 -70q0 -40 -28 -68.5 t-69 -28.5q-40 0 -68 28.5t-28 68.5z" />
<glyph unicode="&#x202f;" horiz-adv-x="343" />
<glyph unicode="&#x2039;" horiz-adv-x="570" d="M85 456l286 360l39 -30l-266 -330l266 -330l-39 -33z" />
<glyph unicode="&#x203a;" horiz-adv-x="568" d="M87 126l265 330l-265 330l39 30l286 -360l-286 -363z" />
<glyph unicode="&#x205f;" horiz-adv-x="429" />
<glyph unicode="&#x20ac;" horiz-adv-x="1330" d="M35 506v62h1019v-62h-1019zM35 780v62h1019v-62h-1019zM137 674q0 145 51 272.5t143.5 224t218.5 151t275 54.5q160 0 272 -42t156 -83l-29 -57q-41 39 -146 79.5t-259 40.5q-123 0 -233 -45t-196 -129t-135 -201.5t-49 -261.5q0 -145 49 -263t135 -202t196 -129t233 -45 q154 0 259 41t146 79l29 -58q-44 -41 -156 -83t-272 -42q-150 0 -275 54.5t-217.5 150t-144 222t-51.5 272.5z" />
<glyph unicode="&#x2122;" horiz-adv-x="805" d="M57 1308v44h300v-44h-128v-379h-43v379h-129zM385 929l38 423h62l61 -325l57 325h63l39 -423h-43l-28 354h-1l-53 -351h-69l-54 351h-1l-28 -354h-43z" />
<glyph unicode="&#x25fc;" horiz-adv-x="839" d="M0 0v840h840v-840h-840z" />
<glyph unicode="&#xfb03;" horiz-adv-x="1653" d="M35 776v65h199v252q0 133 38 206.5t95.5 104t115.5 30.5q70 0 109 -20t44 -24l-32 -58q-6 5 -37 22t-90 17q-43 0 -84 -21t-68 -83.5t-27 -187.5v-238h265v-65h-265v-776h-64v776h-199zM649 776v65h199v252q0 133 38 206.5t95.5 104t115.5 30.5q70 0 109 -20t44 -24 l-32 -58q-6 5 -37 22t-90 17q-43 0 -84 -21t-68 -83.5t-27 -187.5v-238h265v-65h-265v-776h-64v776h-199zM1359 1292q0 29 20 48.5t46 19.5q18 0 34.5 -9.5t26 -24t9.5 -34.5q0 -28 -20.5 -47t-49.5 -19q-28 0 -47 19.5t-19 46.5zM1392 0v841h65v-841h-65z" />
<glyph unicode="&#xfb04;" horiz-adv-x="1620" d="M35 776v65h199v252q0 133 38 206.5t95.5 104t115.5 30.5q70 0 109 -20t44 -24l-32 -58q-6 5 -37 22t-90 17q-43 0 -84 -21t-68 -83.5t-27 -187.5v-238h265v-65h-265v-776h-64v776h-199zM649 776v65h199v252q0 133 38 206.5t95.5 104t115.5 30.5q70 0 109 -20t44 -24 l-32 -58q-6 5 -37 22t-90 17q-43 0 -84 -21t-68 -83.5t-27 -187.5v-238h265v-65h-265v-776h-64v776h-199zM1376 0v1409h68v-1409h-68z" />
</font>
</defs>
</svg>
